<?xml version="1.0" encoding="UTF-8"?>
<svg width="100px" height="60px" viewBox="0 0 100 60" version="1.1" xmlns="http://www.w3.org/2000/svg" xmlns:xlink="http://www.w3.org/1999/xlink">
    <!-- Generator: Sketch 51.3 (57544) - http://www.bohemiancoding.com/sketch -->
    <title>Payment/Stripe/Stripe-card-light</title>
    <desc>Created with Sketch.</desc>
    <defs></defs>
    <g id="Icons:-Payment" stroke="none" stroke-width="1" fill="none" fill-rule="evenodd">
        <g id="Stripe-card-light">
            <g id="Payment/Stripe/Stripe-card-light">
                <rect id="Rectangle" fill="#FFFFFF" x="0" y="0" width="100" height="60" rx="4"></rect>
                <path d="M48.2434844,37.8055412 L48.2434844,22.7305522 L52.5607607,22.7305522 L52.5607607,37.8055412 L48.2434844,37.8055412 Z M58.1833982,23.7933723 C58.7782551,23.2377822 59.8665297,22.4445249 61.5522446,22.4445249 C64.5726846,22.4445249 67.4171131,25.1651254 67.4171131,30.1721532 C67.4171131,35.6367764 64.6029958,38.1128208 61.5260667,38.1128208 C60.0213578,38.1128208 59.1013447,37.4771472 58.4837544,37.0248906 L58.4749711,41.891557 L54.1742282,42.8057146 L54.1726782,22.7304144 L57.959681,22.7304144 L58.1833982,23.7933723 Z M58.4961544,33.4970828 C58.913622,33.9493393 59.5158845,34.3130735 60.5245923,34.3130735 C62.115068,34.3130735 63.1812982,32.5818918 63.1812982,30.2668756 C63.1812982,28.0169595 62.0981902,26.2542611 60.5245923,26.2542611 C59.5375845,26.2542611 58.9189609,26.6150675 58.4704933,27.1062463 L58.4961544,33.4970828 Z M74.7825917,22.4446454 C78.8678842,22.4446454 81,25.9214754 81,30.3260685 C81,30.7419861 80.9612499,31.6428825 80.941961,31.8753831 L72.5228589,31.8753831 C72.7150594,33.8905598 74.1918682,34.4845555 75.8679386,34.4845555 C77.5755257,34.4845555 78.9200676,34.1249547 80.0923869,33.5330256 L80.0923869,36.9979722 C78.9242009,37.6451848 77.3810864,38.1129414 75.3256096,38.1129414 C71.1369836,38.1129414 68.2016216,35.48913 68.2016216,30.3029907 C68.2016216,25.9228532 70.6909271,22.4446454 74.7825917,22.4446454 Z M72.4851422,28.7001149 L76.9307243,28.7001149 C76.9307243,26.7643328 75.8111051,25.9507532 74.7552083,25.9507532 C73.6800226,25.9507532 72.4851422,26.7622661 72.4851422,28.7001149 Z M48.2435533,21.4204376 L48.2435533,17.9177743 L52.5608296,17 L52.5608296,20.5026633 L48.2435533,21.4204376 Z M43.3486597,22.7303972 L43.618188,24.0019167 C44.6244847,22.1512126 46.6348392,22.5261412 47.2078238,22.7321194 L47.2078238,26.6851449 C46.6603281,26.5084445 44.9446465,26.2511439 43.9285332,27.5856969 L43.9285332,37.8053862 L39.6305458,37.8053862 L39.6305458,22.7303972 L43.3486597,22.7303972 Z M34.9938483,18.9962839 L34.9971205,22.7304144 L38.2633223,22.7304144 L38.2633223,26.398067 L34.9971205,26.398067 L34.9971205,32.5164473 C34.9971205,35.0513918 37.7110044,34.2622678 38.2619445,34.0419951 L38.2619445,37.5429362 C37.688271,37.8574147 36.6497687,38.112993 35.2437433,38.112993 C32.6914043,38.112993 30.7768056,36.2330111 30.7768056,33.6868721 L30.7950612,19.8887414 L34.9938483,18.9962839 Z M24.810274,26.1748148 C23.9090331,26.1748148 23.3496541,26.4355599 23.3496541,27.1068836 C23.3496541,29.0423212 29.9235632,28.122308 29.9235632,33.2502361 C29.9235632,36.3459374 27.4595744,38.1129414 23.8840609,38.1129414 C22.4013964,38.1129414 20.7804373,37.8244685 19.1815226,37.1366114 L19.1815226,33.0304801 C20.6249203,33.8154707 22.4633966,34.4039553 23.8878498,34.4039553 C24.8473019,34.4039553 25.5379145,34.146827 25.5379145,33.3521919 C25.5379145,31.298954 19,32.0724057 19,27.3111396 C19,24.2665884 21.3256941,22.4446454 24.8142351,22.4446454 C26.2386883,22.4446454 27.6631415,22.6631959 29.0875946,23.2315305 L29.0875946,27.2816895 C27.7793917,26.5755768 26.1184769,26.1748148 24.810274,26.1748148 Z" id="Combined-Shape" fill="#1A1919"></path>
            </g>
        </g>
    </g>
</svg>