<?xml version="1.0" encoding="UTF-8"?>
<svg width="62px" height="26px" viewBox="0 0 62 26" version="1.1" xmlns="http://www.w3.org/2000/svg" xmlns:xlink="http://www.w3.org/1999/xlink">
    <!-- Generator: Sketch 51.3 (57544) - http://www.bohemiancoding.com/sketch -->
    <title>Payment/Stripe/Stripe-flat</title>
    <desc>Created with Sketch.</desc>
    <defs></defs>
    <g id="Icons:-Payment" stroke="none" stroke-width="1" fill="none" fill-rule="evenodd">
        <g id="Stripe-flat" transform="translate(-19.000000, -17.000000)" fill="#9B9B9B">
            <g id="Payment/Stripe/Stripe-flat" transform="translate(19.000000, 17.000000)">
                <path d="M29.2434844,20.8055412 L29.2434844,5.73055218 L33.5607607,5.73055218 L33.5607607,20.8055412 L29.2434844,20.8055412 Z M39.1833982,6.79337232 C39.7782551,6.2377822 40.8665297,5.44452488 42.5522446,5.44452488 C45.5726846,5.44452488 48.4171131,8.16512537 48.4171131,13.1721532 C48.4171131,18.6367764 45.6029958,21.1128208 42.5260667,21.1128208 C41.0213578,21.1128208 40.1013447,20.4771472 39.4837544,20.0248906 L39.4749711,24.891557 L35.1742282,25.8057146 L35.1726782,5.7304144 L38.959681,5.7304144 L39.1833982,6.79337232 Z M39.4961544,16.4970828 C39.913622,16.9493393 40.5158845,17.3130735 41.5245923,17.3130735 C43.115068,17.3130735 44.1812982,15.5818918 44.1812982,13.2668756 C44.1812982,11.0169595 43.0981902,9.25426112 41.5245923,9.25426112 C40.5375845,9.25426112 39.9189609,9.61506748 39.4704933,10.1062463 L39.4961544,16.4970828 Z M55.7825917,5.44464543 C59.8678842,5.44464543 62,8.92147538 62,13.3260685 C62,13.7419861 61.9612499,14.6428825 61.941961,14.8753831 L53.5228589,14.8753831 C53.7150594,16.8905598 55.1918682,17.4845555 56.8679386,17.4845555 C58.5755257,17.4845555 59.9200676,17.1249547 61.0923869,16.5330256 L61.0923869,19.9979722 C59.9242009,20.6451848 58.3810864,21.1129414 56.3256096,21.1129414 C52.1369836,21.1129414 49.2016216,18.48913 49.2016216,13.3029907 C49.2016216,8.92285316 51.6909271,5.44464543 55.7825917,5.44464543 Z M53.4851422,11.7001149 L57.9307243,11.7001149 C57.9307243,9.76433281 56.8111051,8.95075322 55.7552083,8.95075322 C54.6800226,8.95075322 53.4851422,9.76226614 53.4851422,11.7001149 Z M29.2435533,4.4204376 L29.2435533,0.917774262 L33.5608296,0 L33.5608296,3.50266334 L29.2435533,4.4204376 Z M24.3486597,5.73039718 L24.618188,7.00191667 C25.6244847,5.15121256 27.6348392,5.52614117 28.2078238,5.7321194 L28.2078238,9.68514486 C27.6603281,9.50844446 25.9446465,9.25114389 24.9285332,10.5856969 L24.9285332,20.8053862 L20.6305458,20.8053862 L20.6305458,5.73039718 L24.3486597,5.73039718 Z M15.9938483,1.99628388 L15.9971205,5.7304144 L19.2633223,5.7304144 L19.2633223,9.398067 L15.9971205,9.398067 L15.9971205,15.5164473 C15.9971205,18.0513918 18.7110044,17.2622678 19.2619445,17.0419951 L19.2619445,20.5429362 C18.688271,20.8574147 17.6497687,21.112993 16.2437433,21.112993 C13.6914043,21.112993 11.7768056,19.2330111 11.7768056,16.6868721 L11.7950612,2.88874142 L15.9938483,1.99628388 Z M5.81027402,9.17481483 C4.90903313,9.17481483 4.34965411,9.43555986 4.34965411,10.1068836 C4.34965411,12.0423212 10.9235632,11.122308 10.9235632,16.2502361 C10.9235632,19.3459374 8.45957435,21.1129414 4.88406085,21.1129414 C3.40139645,21.1129414 1.78043729,20.8244685 0.181522626,20.1366114 L0.181522626,16.0304801 C1.62492028,16.8154707 3.46339659,17.4039553 4.88784975,17.4039553 C5.84730188,17.4039553 6.53791453,17.146827 6.53791453,16.3521919 C6.53791453,14.298954 0,15.0724057 0,10.3111396 C0,7.26658837 2.32569406,5.44464543 5.81423514,5.44464543 C7.23868831,5.44464543 8.66314147,5.66319592 10.0875946,6.23153051 L10.0875946,10.2816895 C8.77939173,9.57557683 7.11847693,9.17481483 5.81027402,9.17481483 Z" id="Combined-Shape"></path>
            </g>
        </g>
    </g>
</svg>