<?xml version="1.0" encoding="UTF-8"?>
<svg width="100px" height="60px" viewBox="0 0 100 60" version="1.1" xmlns="http://www.w3.org/2000/svg" xmlns:xlink="http://www.w3.org/1999/xlink">
    <!-- Generator: Sketch 51.3 (57544) - http://www.bohemiancoding.com/sketch -->
    <title>Payment/Stripe/Stripe-card-flat</title>
    <desc>Created with Sketch.</desc>
    <defs></defs>
    <g id="Icons:-Payment" stroke="none" stroke-width="1" fill="none" fill-rule="evenodd">
        <g id="Stripe-card-flat" fill="#9B9B9B">
            <g id="Payment/Stripe/Stripe-card-flat">
                <path d="M0,4.0065556 C0,1.79379604 1.79952991,0 3.99732351,0 L96.0026765,0 C98.2103373,0 100,1.79568082 100,4.0065556 L100,55.9934444 C100,58.206204 98.2004701,60 96.0026765,60 L3.99732351,60 C1.78966269,60 0,58.2043192 0,55.9934444 L0,4.0065556 Z M48,37.0749891 L52.3172763,37.0749891 L52.3172763,22 L48,22 L48,37.0749891 Z M58.01072,23.3488474 L57.7870029,22.2858895 L54,22.2858895 L54.00155,42.3611897 L58.3022929,41.4470321 L58.3110762,36.5803657 C58.9286665,37.0326223 59.8486797,37.6682959 61.3533886,37.6682959 C64.4303176,37.6682959 67.244435,35.1922515 67.244435,29.7276283 C67.244435,24.7206005 64.4000064,22 61.3795664,22 C59.6938515,22 58.6055769,22.7932573 58.01072,23.3488474 Z M58.0256612,33.2428217 L58,26.8519852 C58.4484677,26.3608064 59.0670913,26 60.054099,26 C61.627697,26 62.7108049,27.7626984 62.7108049,30.0126145 C62.7108049,32.3276307 61.6445748,34.0588124 60.054099,34.0588124 C59.0453912,34.0588124 58.4431288,33.6950782 58.0256612,33.2428217 Z M74.5809702,22 C70.4893055,22 68,25.4782077 68,29.8583452 C68,35.0444845 70.9353621,37.6682959 75.1239881,37.6682959 C77.1794648,37.6682959 78.7225794,37.2005393 79.8907653,36.5533268 L79.8907653,33.0883802 C78.718446,33.6803093 77.3739042,34.0399101 75.666317,34.0399101 C73.9902466,34.0399101 72.5134378,33.4459143 72.3212374,31.4307376 L80.7403394,31.4307376 C80.7596284,31.1982371 80.7983784,30.2973407 80.7983784,29.8814231 C80.7983784,25.4768299 78.6662626,22 74.5809702,22 Z M72,28.7493617 C72,26.8115129 73.1948804,26 74.2700662,26 C75.3259629,26 76.4455821,26.8135796 76.4455821,28.7493617 L72,28.7493617 Z M48,21.4204376 L52.3172763,20.5026633 L52.3172763,17 L48,17.9177743 L48,21.4204376 Z M43.7181138,22.1750193 L40,22.1750193 L40,37.2500083 L44.2979873,37.2500083 L44.2979873,27.030319 C45.3141007,25.695766 47.0297823,25.9530666 47.5772779,26.129767 L47.5772779,22.1767415 C47.0042933,21.9707633 44.9939389,21.5958347 43.9876422,23.4465388 L43.7181138,22.1750193 Z M35.2170427,19 L31.0182556,19.8924575 L31,33.6905882 C31,36.2367272 32.9145987,38.1167091 35.4669377,38.1167091 C36.8729631,38.1167091 37.9114654,37.8611308 38.4851389,37.5466523 L38.4851389,34.0457112 C37.9341987,34.2659839 35.2203149,35.0551079 35.2203149,32.5201634 L35.2203149,26.4017831 L38.4865166,26.4017831 L38.4865166,22.7341305 L35.2203149,22.7341305 L35.2170427,19 Z M24.810274,25.7301694 C26.1184769,25.7301694 27.7793917,26.1309314 29.0875946,26.8370441 L29.0875946,22.7868851 C27.6631415,22.2185505 26.2386883,22 24.8142351,22 C21.3256941,22 19,23.8219429 19,26.8664941 C19,31.6277603 25.5379145,30.8543086 25.5379145,32.9075465 C25.5379145,33.7021816 24.8473019,33.9593099 23.8878498,33.9593099 C22.4633966,33.9593099 20.6249203,33.3708253 19.1815226,32.5858346 L19.1815226,36.691966 C20.7804373,37.3798231 22.4013964,37.6682959 23.8840609,37.6682959 C27.4595744,37.6682959 29.9235632,35.901292 29.9235632,32.8055907 C29.9235632,27.6776626 23.3496541,28.5976758 23.3496541,26.6622381 C23.3496541,25.9909144 23.9090331,25.7301694 24.810274,25.7301694 Z" id="Combined-Shape"></path>
            </g>
        </g>
    </g>
</svg>