<?xml version="1.0" encoding="UTF-8"?>
<svg width="100px" height="60px" viewBox="0 0 100 60" version="1.1" xmlns="http://www.w3.org/2000/svg" xmlns:xlink="http://www.w3.org/1999/xlink">
    <!-- Generator: Sketch 51.3 (57544) - http://www.bohemiancoding.com/sketch -->
    <title>Credit Card/MasterCard/MasterCard-card-flat</title>
    <desc>Created with Sketch.</desc>
    <defs></defs>
    <g id="Icons:-Credit-card" stroke="none" stroke-width="1" fill="none" fill-rule="evenodd">
        <g id="MasterCard-card-flat" fill="#9B9B9B">
            <g id="Credit-Card/MasterCard/MasterCard-card-flat">
                <path d="M0,4.0065556 C0,1.79379604 1.79952991,0 3.99732351,0 L96.0026765,0 C98.2103373,0 100,1.79568082 100,4.0065556 L100,55.9934444 C100,58.206204 98.2004701,60 96.0026765,60 L3.99732351,60 C1.78966269,60 0,58.2043192 0,55.9934444 L0,4.0065556 Z M49.0149753,10.0908334 C48.7836856,10.2726628 48.5573806,10.4599719 48.3360602,10.6522626 C44.5546726,13.9406338 42.1610233,18.7812794 42.1610233,24.1838525 C42.1610233,29.5859274 44.5546726,34.4265731 48.3360602,37.7144461 C48.5573806,37.907235 48.7836856,38.0945441 49.0149753,38.2763735 C49.2462651,38.0945441 49.4725701,37.907235 49.6943889,37.7144461 C53.4757766,34.4265731 55.8689274,29.5859274 55.8689274,24.1838525 C55.8689274,18.7812794 53.4757766,13.9406338 49.6943889,10.6522626 C49.4725701,10.4599719 49.2462651,10.2726628 49.0149753,10.0908334 Z M60.1054174,6.25 C56.4312007,6.25 53.0161879,7.35392825 50.171424,9.24694602 C50.316977,9.36600687 50.4645239,9.48357324 50.6050922,9.60612123 C54.8326098,13.2815647 57.2576627,18.5949666 57.2576627,24.1838525 C57.2576627,29.7722402 54.8326098,35.085144 50.6055907,38.7610856 C50.4655208,38.8831355 50.316977,39.0007018 50.171424,39.1197627 C53.0161879,41.0132786 56.4312007,42.1172069 60.1054174,42.1172069 C70.0159828,42.1172069 78.05031,34.0883207 78.05031,24.1838525 C78.05031,14.2788861 70.0159828,6.25 60.1054174,6.25 Z M47.4248585,38.7610856 C43.1973409,35.0856422 40.7727865,29.7722402 40.7727865,24.1838525 C40.7727865,18.5949666 43.1973409,13.2815647 47.4248585,9.60562307 C47.5659253,9.48357324 47.7129737,9.36600687 47.8585267,9.24694602 C45.0142612,7.35392825 41.59875,6.25 37.9245333,6.25 C28.0134694,6.25 19.9796407,14.2793843 19.9796407,24.1838525 C19.9796407,34.0883207 28.0134694,42.1172069 37.9245333,42.1172069 C41.59875,42.1172069 45.0142612,41.0132786 47.8585267,39.1197627 C47.7129737,39.0007018 47.5649283,38.8831355 47.4248585,38.7610856 Z M75.4630529,50.0349363 L75.5665214,50.0349363 C75.5893934,50.0349363 75.608998,50.0392929 75.6231568,50.0490952 C75.6362265,50.0578083 75.6438505,50.0719672 75.6438505,50.0904826 C75.6438505,50.108998 75.6362265,50.124246 75.6231568,50.1329591 C75.608998,50.1416723 75.5893934,50.147118 75.5665214,50.147118 L75.4630529,50.147118 L75.4630529,50.0349363 Z M75.5676106,49.9565181 L75.3737433,49.9565181 L75.3737433,50.3758378 L75.4630529,50.3758378 L75.4630529,50.2190013 L75.5044403,50.2190013 L75.63187,50.3758378 L75.7386059,50.3758378 L75.601374,50.2179122 C75.6449397,50.2124665 75.6776139,50.1983076 75.7004859,50.1765248 C75.7244471,50.1536528 75.7353385,50.1253351 75.7353385,50.0904826 C75.7353385,50.0490952 75.7211796,50.0164209 75.6917728,49.9924598 C75.662366,49.9684987 75.6209786,49.9565181 75.5676106,49.9565181 Z M75.540382,50.5206937 C75.4913706,50.5206937 75.4445375,50.5108914 75.402061,50.492376 C75.3584953,50.4738606 75.3203753,50.4488103 75.2887902,50.4172252 C75.2572051,50.3856401 75.2321548,50.3486092 75.2147286,50.3050436 C75.1962131,50.262567 75.1875,50.2168231 75.1875,50.1678117 C75.1875,50.1188003 75.1962131,50.0730563 75.2147286,50.0305798 C75.2321548,49.9881032 75.2572051,49.9499832 75.2887902,49.9183981 C75.3203753,49.886813 75.3584953,49.8617627 75.402061,49.8432473 C75.4445375,49.825821 75.4913706,49.8171079 75.540382,49.8171079 C75.5893934,49.8171079 75.6351374,49.825821 75.6765248,49.8432473 C75.7190013,49.8617627 75.7560322,49.886813 75.7876173,49.9183981 C75.8192024,49.9499832 75.8442527,49.9881032 75.8627681,50.0305798 C75.8801944,50.0730563 75.8899966,50.1188003 75.8899966,50.1678117 C75.8899966,50.2168231 75.8801944,50.262567 75.8627681,50.3050436 C75.8442527,50.3486092 75.8192024,50.3856401 75.7876173,50.4172252 C75.7560322,50.4488103 75.7190013,50.4738606 75.6765248,50.492376 C75.6351374,50.5108914 75.5893934,50.5206937 75.540382,50.5206937 Z M75.540382,49.7158177 C75.4750335,49.7158177 75.4151307,49.7277983 75.3584953,49.7517594 C75.3018599,49.7746314 75.2528485,49.8073056 75.2114611,49.848693 C75.1700737,49.8889913 75.1373995,49.9369135 75.1134383,49.9924598 C75.0894772,50.0469169 75.0774966,50.1057306 75.0774966,50.1678117 C75.0774966,50.2298928 75.0894772,50.2887064 75.1134383,50.3431635 C75.1373995,50.3976206 75.1700737,50.4455429 75.2114611,50.4869303 C75.2528485,50.5272286 75.3018599,50.5599028 75.3584953,50.5838639 C75.4151307,50.6078251 75.4750335,50.6198056 75.540382,50.6198056 C75.6046414,50.6198056 75.6634551,50.6078251 75.7200905,50.5838639 C75.7756367,50.5599028 75.823559,50.5272286 75.8660355,50.4869303 C75.9074229,50.4455429 75.9400972,50.3976206 75.9640583,50.3431635 C75.9880194,50.2887064 76,50.2298928 76,50.1678117 C76,50.1057306 75.9880194,50.0469169 75.9640583,49.9924598 C75.9400972,49.9369135 75.9074229,49.8889913 75.8660355,49.848693 C75.823559,49.8073056 75.7756367,49.7746314 75.7200905,49.7517594 C75.6634551,49.7277983 75.6046414,49.7158177 75.540382,49.7158177 Z M33.106317,48.10062 C33.106317,47.3011897 33.6301944,46.644437 34.4862601,46.644437 C35.3042058,46.644437 35.8564008,47.272872 35.8564008,48.10062 C35.8564008,48.928368 35.3042058,49.5568029 34.4862601,49.5568029 C33.6301944,49.5568029 33.106317,48.9000503 33.106317,48.10062 Z M36.7887064,48.10062 L36.7887064,45.8264913 L35.7997654,45.8264913 L35.7997654,46.3786863 C35.4860925,45.9691689 35.0101374,45.7121314 34.363187,45.7121314 C33.0878016,45.7121314 32.0879692,46.7119638 32.0879692,48.10062 C32.0879692,49.4903653 33.0878016,50.4891086 34.363187,50.4891086 C35.0101374,50.4891086 35.4860925,50.232071 35.7997654,49.8225536 L35.7997654,50.3747487 L36.7887064,50.3747487 L36.7887064,48.10062 Z M70.2079424,48.10062 C70.2079424,47.3011897 70.7318197,46.644437 71.5878854,46.644437 C72.4069202,46.644437 72.9580261,47.272872 72.9580261,48.10062 C72.9580261,48.928368 72.4069202,49.5568029 71.5878854,49.5568029 C70.7318197,49.5568029 70.2079424,48.9000503 70.2079424,48.10062 Z M73.8914209,48.10062 L73.8914209,44 L72.9013908,44 L72.9013908,46.3786863 C72.5877178,45.9691689 72.1117627,45.7121314 71.4648123,45.7121314 C70.1894269,45.7121314 69.1895945,46.7119638 69.1895945,48.10062 C69.1895945,49.4903653 70.1894269,50.4891086 71.4648123,50.4891086 C72.1117627,50.4891086 72.5877178,50.232071 72.9013908,49.8225536 L72.9013908,50.3747487 L73.8914209,50.3747487 L73.8914209,48.10062 Z M49.0644269,46.5976039 C49.7015751,46.5976039 50.1110925,46.997319 50.2156501,47.7009048 L47.8554792,47.7009048 C47.961126,47.0441521 48.359752,46.5976039 49.0644269,46.5976039 Z M49.0840315,45.7121314 C47.7509216,45.7121314 46.818616,46.682557 46.818616,48.10062 C46.818616,49.5470007 47.7890416,50.4891086 49.1504692,50.4891086 C49.8355395,50.4891086 50.4628854,50.3181133 51.0150804,49.8519605 L50.5304122,49.1189678 C50.1492125,49.4228385 49.6634551,49.5949229 49.2071046,49.5949229 C48.5699564,49.5949229 47.9894437,49.2997654 47.8467661,48.4807306 L51.2241957,48.4807306 C51.233998,48.3576575 51.2438003,48.2334953 51.2438003,48.10062 C51.233998,46.682557 50.3583277,45.7121314 49.0840315,45.7121314 Z M61.0253854,48.10062 C61.0253854,47.3011897 61.5492627,46.644437 62.4053284,46.644437 C63.2232741,46.644437 63.7754692,47.272872 63.7754692,48.10062 C63.7754692,48.928368 63.2232741,49.5568029 62.4053284,49.5568029 C61.5492627,49.5568029 61.0253854,48.9000503 61.0253854,48.10062 Z M64.7077748,48.10062 L64.7077748,45.8264913 L63.7188338,45.8264913 L63.7188338,46.3786863 C63.4040717,45.9691689 62.9292058,45.7121314 62.2822554,45.7121314 C61.00687,45.7121314 60.0070375,46.7119638 60.0070375,48.10062 C60.0070375,49.4903653 61.00687,50.4891086 62.2822554,50.4891086 C62.9292058,50.4891086 63.4040717,50.232071 63.7188338,49.8225536 L63.7188338,50.3747487 L64.7077748,50.3747487 L64.7077748,48.10062 Z M55.4402647,48.10062 C55.4402647,49.480563 56.4008881,50.4891086 57.8668733,50.4891086 C58.5519437,50.4891086 59.0082942,50.3366287 59.5027647,49.9467158 L59.0278988,49.1472855 C58.6565013,49.4141253 58.2665885,49.5568029 57.8374665,49.5568029 C57.0478385,49.5470007 56.4673257,48.9762902 56.4673257,48.10062 C56.4673257,47.2249497 57.0478385,46.6542393 57.8374665,46.644437 C58.2665885,46.644437 58.6565013,46.7871146 59.0278988,47.0539544 L59.5027647,46.2545241 C59.0082942,45.8646113 58.5519437,45.7121314 57.8668733,45.7121314 C56.4008881,45.7121314 55.4402647,46.7206769 55.4402647,48.10062 Z M68.1908512,45.7121314 C67.6201408,45.7121314 67.2487433,45.9789712 66.9917058,46.3786863 L66.9917058,45.8264913 L66.0114779,45.8264913 L66.0114779,50.3747487 L67.001508,50.3747487 L67.001508,47.825067 C67.001508,47.0724698 67.3249832,46.6542393 67.9719336,46.6542393 C68.1723358,46.6542393 68.3814511,46.682557 68.5905664,46.7685992 L68.8955261,45.8362936 C68.6766086,45.7502513 68.3912534,45.7121314 68.1908512,45.7121314 Z M41.6800436,46.1880865 C41.2040885,45.8744135 40.5484249,45.7121314 39.8252346,45.7121314 C38.6729223,45.7121314 37.9312165,46.2643264 37.9312165,47.1683143 C37.9312165,47.9100201 38.4834115,48.3674598 39.5006702,48.5101374 L39.9679122,48.5765751 C40.510305,48.652815 40.7662534,48.7954926 40.7662534,49.0525302 C40.7662534,49.4043231 40.4046582,49.6047252 39.7293901,49.6047252 C39.0443197,49.6047252 38.5498492,49.3858076 38.2165717,49.1287701 L37.7504189,49.8987936 C38.2928117,50.2985087 38.977882,50.4891086 39.7195878,50.4891086 C41.0330932,50.4891086 41.7944035,49.8704759 41.7944035,49.0046079 C41.7944035,48.2051776 41.1953753,47.7869471 40.2053452,47.6442694 L39.7391924,47.5767426 C39.3111595,47.5201072 38.9680798,47.4351542 38.9680798,47.1301944 C38.9680798,46.7969169 39.291555,46.5976039 39.8339477,46.5976039 C40.4144605,46.5976039 40.9764578,46.8165214 41.2520107,46.9875168 L41.6800436,46.1880865 Z M54.4404323,45.7121314 C53.8697218,45.7121314 53.4983244,45.9789712 53.242376,46.3786863 L53.242376,45.8264913 L52.2621481,45.8264913 L52.2621481,50.3747487 L53.2510891,50.3747487 L53.2510891,47.825067 C53.2510891,47.0724698 53.5745643,46.6542393 54.2215147,46.6542393 C54.4219169,46.6542393 54.6310322,46.682557 54.8401475,46.7685992 L55.1451072,45.8362936 C54.9261897,45.7502513 54.6408345,45.7121314 54.4404323,45.7121314 Z M46.0006702,45.8264913 L44.3832942,45.8264913 L44.3832942,44.4465483 L43.3834618,44.4465483 L43.3834618,45.8264913 L42.4609584,45.8264913 L42.4609584,46.7304792 L43.3834618,46.7304792 L43.3834618,48.8052949 C43.3834618,49.8606736 43.7929792,50.4891086 44.9627178,50.4891086 C45.3918398,50.4891086 45.8863103,50.3562332 46.1999832,50.1373157 L45.914628,49.2899631 C45.6194705,49.4609584 45.2959953,49.5470007 45.0389578,49.5470007 C44.5444873,49.5470007 44.3832942,49.2420409 44.3832942,48.7856903 L44.3832942,46.7304792 L46.0006702,46.7304792 L46.0006702,45.8264913 Z M31.2133881,50.3747487 L31.2133881,47.5201072 C31.2133881,46.445124 30.5283177,45.7219336 29.4239276,45.7121314 C28.8434149,45.7023291 28.2443867,45.8831267 27.825067,46.5213639 C27.5113941,46.0170912 27.0169236,45.7121314 26.3220509,45.7121314 C25.8362936,45.7121314 25.3614276,45.854809 24.9900302,46.3873995 L24.9900302,45.8264913 L24,45.8264913 L24,50.3747487 L24.9987433,50.3747487 L24.9987433,47.8533847 C24.9987433,47.0637567 25.4365784,46.644437 26.1129357,46.644437 C26.7696883,46.644437 27.1018767,47.0724698 27.1018767,47.8435824 L27.1018767,50.3747487 L28.1017091,50.3747487 L28.1017091,47.8533847 C28.1017091,47.0637567 28.5580597,46.644437 29.2148123,46.644437 C29.8900804,46.644437 30.2135556,47.0724698 30.2135556,47.8435824 L30.2135556,50.3747487 L31.2133881,50.3747487 Z" id="Combined-Shape"></path>
            </g>
        </g>
    </g>
</svg>