<?xml version="1.0" encoding="UTF-8"?>
<svg width="100px" height="60px" viewBox="0 0 100 60" version="1.1" xmlns="http://www.w3.org/2000/svg" xmlns:xlink="http://www.w3.org/1999/xlink">
    <!-- Generator: Sketch 51.3 (57544) - http://www.bohemiancoding.com/sketch -->
    <title>Credit Card/MasterCard/MasterCard-dark</title>
    <desc>Created with Sketch.</desc>
    <defs></defs>
    <g id="Icons:-Credit-card" stroke="none" stroke-width="1" fill="none" fill-rule="evenodd">
        <g id="MasterCard-dark">
            <g id="Credit-Card/MasterCard/MasterCard-dark">
                <rect id="Rectangle" fill="#000000" fill-rule="evenodd" x="0" y="0" width="100" height="60" rx="4"></rect>
                <g id="Group" stroke-width="1" fill-rule="evenodd" transform="translate(20.000000, 7.000000)">
                    <path d="M17.4456948,35.1268313 C7.81058756,35.1268313 0,27.2641232 0,17.5636932 C0,7.8635407 7.81058756,0 17.4456948,0 C27.0805264,0 34.8905626,7.8635407 34.8905626,17.5636932 C34.8905626,27.2641232 27.0805264,35.1268313 17.4456948,35.1268313 Z" id="Fill-333" fill="#EB001B"></path>
                    <path d="M40.6881191,35.1268313 C31.0530118,35.1268313 23.2424242,27.2641232 23.2424242,17.5636932 C23.2424242,7.8635407 31.0530118,0 40.6881191,0 C50.3229507,0 58.1329869,7.8635407 58.1329869,17.5636932 C58.1329869,27.2641232 50.3229507,35.1268313 40.6881191,35.1268313 Z" id="Fill-333-Copy" fill="#FF9A00"></path>
                    <path d="M29.0666677,4.4641096 C32.6408171,7.68039497 34.8905626,12.3575185 34.8905626,17.5636932 C34.8905626,22.7700169 32.6408171,27.4469695 29.0666677,30.6630646 C25.4923286,27.4469695 23.2424242,22.7700169 23.2424242,17.5636932 C23.2424242,12.3575185 25.4923286,7.68039497 29.0666677,4.4641096 Z" id="Combined-Shape" fill="#FF5F00"></path>
                </g>
                <path d="M75.4630529,44.5848693 L75.4630529,44.4726877 L75.5665214,44.4726877 C75.5893934,44.4726877 75.608998,44.4781334 75.6231568,44.4868465 C75.6362265,44.4955597 75.6438505,44.5108076 75.6438505,44.5293231 C75.6438505,44.5478385 75.6362265,44.5619973 75.6231568,44.5707105 C75.608998,44.5805127 75.5893934,44.5848693 75.5665214,44.5848693 L75.4630529,44.5848693 Z M75.5676106,44.6632875 C75.6209786,44.6632875 75.662366,44.651307 75.6917728,44.6273458 C75.7211796,44.6033847 75.7353385,44.5707105 75.7353385,44.5293231 C75.7353385,44.4944705 75.7244471,44.4661528 75.7004859,44.4432808 C75.6776139,44.421498 75.6449397,44.4073391 75.601374,44.4018934 L75.7386059,44.2439678 L75.63187,44.2439678 L75.5044403,44.4008043 L75.4630529,44.4008043 L75.4630529,44.2439678 L75.3737433,44.2439678 L75.3737433,44.6632875 L75.5676106,44.6632875 Z M75.540382,44.0991119 C75.5893934,44.0991119 75.6351374,44.1089142 75.6765248,44.1274296 C75.7190013,44.145945 75.7560322,44.1709953 75.7876173,44.2025804 C75.8192024,44.2341655 75.8442527,44.2711964 75.8627681,44.3147621 C75.8801944,44.3572386 75.8899966,44.4029826 75.8899966,44.451994 C75.8899966,44.5010054 75.8801944,44.5467493 75.8627681,44.5892259 C75.8442527,44.6317024 75.8192024,44.6698224 75.7876173,44.7014075 C75.7560322,44.7329926 75.7190013,44.7580429 75.6765248,44.7765583 C75.6351374,44.7939846 75.5893934,44.8026977 75.540382,44.8026977 C75.4913706,44.8026977 75.4445375,44.7939846 75.402061,44.7765583 C75.3584953,44.7580429 75.3203753,44.7329926 75.2887902,44.7014075 C75.2572051,44.6698224 75.2321548,44.6317024 75.2147286,44.5892259 C75.1962131,44.5467493 75.1875,44.5010054 75.1875,44.451994 C75.1875,44.4029826 75.1962131,44.3572386 75.2147286,44.3147621 C75.2321548,44.2711964 75.2572051,44.2341655 75.2887902,44.2025804 C75.3203753,44.1709953 75.3584953,44.145945 75.402061,44.1274296 C75.4445375,44.1089142 75.4913706,44.0991119 75.540382,44.0991119 Z M75.540382,44.9039879 C75.6046414,44.9039879 75.6634551,44.8920074 75.7200905,44.8680462 C75.7756367,44.8451743 75.823559,44.8125 75.8660355,44.7711126 C75.9074229,44.7308143 75.9400972,44.6828921 75.9640583,44.6273458 C75.9880194,44.5728887 76,44.5140751 76,44.451994 C76,44.3899129 75.9880194,44.3310992 75.9640583,44.2766421 C75.9400972,44.222185 75.9074229,44.1742627 75.8660355,44.1328753 C75.823559,44.0925771 75.7756367,44.0599028 75.7200905,44.0359417 C75.6634551,44.0119806 75.6046414,44 75.540382,44 C75.4750335,44 75.4151307,44.0119806 75.3584953,44.0359417 C75.3018599,44.0599028 75.2528485,44.0925771 75.2114611,44.1328753 C75.1700737,44.1742627 75.1373995,44.222185 75.1134383,44.2766421 C75.0894772,44.3310992 75.0774966,44.3899129 75.0774966,44.451994 C75.0774966,44.5140751 75.0894772,44.5728887 75.1134383,44.6273458 C75.1373995,44.6828921 75.1700737,44.7308143 75.2114611,44.7711126 C75.2528485,44.8125 75.3018599,44.8451743 75.3584953,44.8680462 C75.4151307,44.8920074 75.4750335,44.9039879 75.540382,44.9039879 Z M33.106317,46.5191857 C33.106317,47.318616 33.6301944,47.9753686 34.4862601,47.9753686 C35.3042058,47.9753686 35.8564008,47.3469336 35.8564008,46.5191857 C35.8564008,45.6914377 35.3042058,45.0630027 34.4862601,45.0630027 C33.6301944,45.0630027 33.106317,45.7197554 33.106317,46.5191857 Z M36.7887064,46.5191857 L36.7887064,48.7933143 L35.7997654,48.7933143 L35.7997654,48.2411193 C35.4860925,48.6506367 35.0101374,48.9076743 34.363187,48.9076743 C33.0878016,48.9076743 32.0879692,47.9078418 32.0879692,46.5191857 C32.0879692,45.1294403 33.0878016,44.1306971 34.363187,44.1306971 C35.0101374,44.1306971 35.4860925,44.3877346 35.7997654,44.797252 L35.7997654,44.245057 L36.7887064,44.245057 L36.7887064,46.5191857 Z M70.2079424,46.5191857 C70.2079424,47.318616 70.7318197,47.9753686 71.5878854,47.9753686 C72.4069202,47.9753686 72.9580261,47.3469336 72.9580261,46.5191857 C72.9580261,45.6914377 72.4069202,45.0630027 71.5878854,45.0630027 C70.7318197,45.0630027 70.2079424,45.7197554 70.2079424,46.5191857 Z M73.8914209,46.5191857 L73.8914209,50.6198056 L72.9013908,50.6198056 L72.9013908,48.2411193 C72.5877178,48.6506367 72.1117627,48.9076743 71.4648123,48.9076743 C70.1894269,48.9076743 69.1895945,47.9078418 69.1895945,46.5191857 C69.1895945,45.1294403 70.1894269,44.1306971 71.4648123,44.1306971 C72.1117627,44.1306971 72.5877178,44.3877346 72.9013908,44.797252 L72.9013908,44.245057 L73.8914209,44.245057 L73.8914209,46.5191857 Z M49.0644269,48.0222017 C49.7015751,48.0222017 50.1110925,47.6224866 50.2156501,46.9189008 L47.8554792,46.9189008 C47.961126,47.5756535 48.359752,48.0222017 49.0644269,48.0222017 Z M49.0840315,48.9076743 C47.7509216,48.9076743 46.818616,47.9372487 46.818616,46.5191857 C46.818616,45.072805 47.7890416,44.1306971 49.1504692,44.1306971 C49.8355395,44.1306971 50.4628854,44.3016924 51.0150804,44.7678452 L50.5304122,45.5008378 C50.1492125,45.1969672 49.6634551,45.0248827 49.2071046,45.0248827 C48.5699564,45.0248827 47.9894437,45.3200402 47.8467661,46.1390751 L51.2241957,46.1390751 C51.233998,46.2621481 51.2438003,46.3863103 51.2438003,46.5191857 C51.233998,47.9372487 50.3583277,48.9076743 49.0840315,48.9076743 Z M61.0253854,46.5191857 C61.0253854,47.318616 61.5492627,47.9753686 62.4053284,47.9753686 C63.2232741,47.9753686 63.7754692,47.3469336 63.7754692,46.5191857 C63.7754692,45.6914377 63.2232741,45.0630027 62.4053284,45.0630027 C61.5492627,45.0630027 61.0253854,45.7197554 61.0253854,46.5191857 Z M64.7077748,46.5191857 L64.7077748,48.7933143 L63.7188338,48.7933143 L63.7188338,48.2411193 C63.4040717,48.6506367 62.9292058,48.9076743 62.2822554,48.9076743 C61.00687,48.9076743 60.0070375,47.9078418 60.0070375,46.5191857 C60.0070375,45.1294403 61.00687,44.1306971 62.2822554,44.1306971 C62.9292058,44.1306971 63.4040717,44.3877346 63.7188338,44.797252 L63.7188338,44.245057 L64.7077748,44.245057 L64.7077748,46.5191857 Z M55.4402647,46.5191857 C55.4402647,45.1392426 56.4008881,44.1306971 57.8668733,44.1306971 C58.5519437,44.1306971 59.0082942,44.2831769 59.5027647,44.6730898 L59.0278988,45.4725201 C58.6565013,45.2056803 58.2665885,45.0630027 57.8374665,45.0630027 C57.0478385,45.072805 56.4673257,45.6435154 56.4673257,46.5191857 C56.4673257,47.3948559 57.0478385,47.9655664 57.8374665,47.9753686 C58.2665885,47.9753686 58.6565013,47.832691 59.0278988,47.5658512 L59.5027647,48.3652815 C59.0082942,48.7551944 58.5519437,48.9076743 57.8668733,48.9076743 C56.4008881,48.9076743 55.4402647,47.8991287 55.4402647,46.5191857 Z M68.1908512,48.9076743 C67.6201408,48.9076743 67.2487433,48.6408345 66.9917058,48.2411193 L66.9917058,48.7933143 L66.0114779,48.7933143 L66.0114779,44.245057 L67.001508,44.245057 L67.001508,46.7947386 C67.001508,47.5473358 67.3249832,47.9655664 67.9719336,47.9655664 C68.1723358,47.9655664 68.3814511,47.9372487 68.5905664,47.8512064 L68.8955261,48.7835121 C68.6766086,48.8695543 68.3912534,48.9076743 68.1908512,48.9076743 Z M41.6800436,48.4317192 C41.2040885,48.7453921 40.5484249,48.9076743 39.8252346,48.9076743 C38.6729223,48.9076743 37.9312165,48.3554792 37.9312165,47.4514913 C37.9312165,46.7097855 38.4834115,46.2523458 39.5006702,46.1096682 L39.9679122,46.0432306 C40.510305,45.9669906 40.7662534,45.824313 40.7662534,45.5672755 C40.7662534,45.2154826 40.4046582,45.0150804 39.7293901,45.0150804 C39.0443197,45.0150804 38.5498492,45.233998 38.2165717,45.4910355 L37.7504189,44.7210121 C38.2928117,44.3212969 38.977882,44.1306971 39.7195878,44.1306971 C41.0330932,44.1306971 41.7944035,44.7493298 41.7944035,45.6151977 C41.7944035,46.414628 41.1953753,46.8328586 40.2053452,46.9755362 L39.7391924,47.043063 C39.3111595,47.0996984 38.9680798,47.1846515 38.9680798,47.4896113 C38.9680798,47.8228887 39.291555,48.0222017 39.8339477,48.0222017 C40.4144605,48.0222017 40.9764578,47.8032842 41.2520107,47.6322889 L41.6800436,48.4317192 Z M54.4404323,48.9076743 C53.8697218,48.9076743 53.4983244,48.6408345 53.242376,48.2411193 L53.242376,48.7933143 L52.2621481,48.7933143 L52.2621481,44.245057 L53.2510891,44.245057 L53.2510891,46.7947386 C53.2510891,47.5473358 53.5745643,47.9655664 54.2215147,47.9655664 C54.4219169,47.9655664 54.6310322,47.9372487 54.8401475,47.8512064 L55.1451072,48.7835121 C54.9261897,48.8695543 54.6408345,48.9076743 54.4404323,48.9076743 Z M46.0006702,48.7933143 L44.3832942,48.7933143 L44.3832942,50.1732574 L43.3834618,50.1732574 L43.3834618,48.7933143 L42.4609584,48.7933143 L42.4609584,47.8893264 L43.3834618,47.8893264 L43.3834618,45.8145107 C43.3834618,44.759132 43.7929792,44.1306971 44.9627178,44.1306971 C45.3918398,44.1306971 45.8863103,44.2635724 46.1999832,44.4824899 L45.914628,45.3298425 C45.6194705,45.1588472 45.2959953,45.072805 45.0389578,45.072805 C44.5444873,45.072805 44.3832942,45.3777647 44.3832942,45.8341153 L44.3832942,47.8893264 L46.0006702,47.8893264 L46.0006702,48.7933143 Z M31.2133881,44.245057 L31.2133881,47.0996984 C31.2133881,48.1746816 30.5283177,48.897872 29.4239276,48.9076743 C28.8434149,48.9174765 28.2443867,48.736679 27.825067,48.0984417 C27.5113941,48.6027145 27.0169236,48.9076743 26.3220509,48.9076743 C25.8362936,48.9076743 25.3614276,48.7649966 24.9900302,48.2324062 L24.9900302,48.7933143 L24,48.7933143 L24,44.245057 L24.9987433,44.245057 L24.9987433,46.7664209 C24.9987433,47.5560489 25.4365784,47.9753686 26.1129357,47.9753686 C26.7696883,47.9753686 27.1018767,47.5473358 27.1018767,46.7762232 L27.1018767,44.245057 L28.1017091,44.245057 L28.1017091,46.7664209 C28.1017091,47.5560489 28.5580597,47.9753686 29.2148123,47.9753686 C29.8900804,47.9753686 30.2135556,47.5473358 30.2135556,46.7762232 L30.2135556,44.245057 L31.2133881,44.245057 Z" id="Shape" fill="#FFFFFF" fill-rule="nonzero" transform="translate(50.000000, 47.309903) scale(1, -1) translate(-50.000000, -47.309903) "></path>
            </g>
        </g>
    </g>
</svg>