<?xml version="1.0" encoding="UTF-8"?>
<svg width="66px" height="40px" viewBox="0 0 66 40" version="1.1" xmlns="http://www.w3.org/2000/svg" xmlns:xlink="http://www.w3.org/1999/xlink">
    <!-- Generator: Sketch 51.3 (57544) - http://www.bohemiancoding.com/sketch -->
    <title>Credit Card/MasterCard/MasterCard</title>
    <desc>Created with Sketch.</desc>
    <defs></defs>
    <g id="Icons:-Credit-card" stroke="none" stroke-width="1" fill="none" fill-rule="evenodd">
        <g id="MasterCard" transform="translate(-17.000000, -10.000000)">
            <g id="Credit-Card/MasterCard/MasterCard" transform="translate(17.000000, 10.000000)">
                <path d="M19.6140231,40 C8.83576744,40 0.0985,31.2636578 0.0985,20.4854021 C0.0985,9.70745494 8.83576744,0.970187498 19.6140231,0.970187498 C30.3919703,0.970187498 39.1286209,9.70745494 39.1286209,20.4854021 C39.1286209,31.2636578 30.3919703,40 19.6140231,40 Z" id="Fill-333" fill="#EB001B"></path>
                <path d="M45.5155231,40.0298125 C34.7372674,40.0298125 26,31.2934703 26,20.5152147 C26,9.73726744 34.7372674,1 45.5155231,1 C56.2934703,1 65.0301209,9.73726744 65.0301209,20.5152147 C65.0301209,31.2934703 56.2934703,40.0298125 45.5155231,40.0298125 Z" id="Fill-333-Copy" fill="#FF9A00"></path>
                <path d="M32.5812975,5.90136252 C36.5983312,9.47586654 39.1286209,14.6851257 39.1286209,20.4854021 C39.1286209,26.3019919 36.5842239,31.5239099 32.547715,35.0990167 C28.5304683,31.5247248 26,26.315657 26,20.5152147 C26,14.6987923 28.5445758,9.47668209 32.5812975,5.90136252 Z" id="Combined-Shape" fill="#FF5F00"></path>
            </g>
        </g>
    </g>
</svg>