<?xml version="1.0" encoding="UTF-8"?>
<svg width="100px" height="60px" viewBox="0 0 100 60" version="1.1" xmlns="http://www.w3.org/2000/svg" xmlns:xlink="http://www.w3.org/1999/xlink">
    <!-- Generator: Sketch 51.3 (57544) - http://www.bohemiancoding.com/sketch -->
    <title>Credit Card/Maestro/Maestro-card-flat</title>
    <desc>Created with Sketch.</desc>
    <defs></defs>
    <g id="Icons:-Credit-card" stroke="none" stroke-width="1" fill="none" fill-rule="evenodd">
        <g id="Maestro-card-flat" fill="#9B9B9B">
            <g id="Credit-Card/Maestro/Maestro-card-flat">
                <path d="M0,4.0065556 C0,1.79379604 1.79952991,0 3.99732351,0 L96.0026765,0 C98.2103373,0 100,1.79568082 100,4.0065556 L100,55.9934444 C100,58.206204 98.2004701,60 96.0026765,60 L3.99732351,60 C1.78966269,60 0,58.2043192 0,55.9934444 L0,4.0065556 Z M49.0149753,10.0908334 C48.7836856,10.2726628 48.5573806,10.4599719 48.3360602,10.6522626 C44.5546726,13.9406338 42.1610233,18.7812794 42.1610233,24.1838525 C42.1610233,29.5859274 44.5546726,34.4265731 48.3360602,37.7144461 C48.5573806,37.907235 48.7836856,38.0945441 49.0149753,38.2763735 C49.2462651,38.0945441 49.4725701,37.907235 49.6943889,37.7144461 C53.4757766,34.4265731 55.8689274,29.5859274 55.8689274,24.1838525 C55.8689274,18.7812794 53.4757766,13.9406338 49.6943889,10.6522626 C49.4725701,10.4599719 49.2462651,10.2726628 49.0149753,10.0908334 Z M60.1054174,6.25 C56.4312007,6.25 53.0161879,7.35392825 50.171424,9.24694602 C50.316977,9.36600687 50.4645239,9.48357324 50.6050922,9.60612123 C54.8326098,13.2815647 57.2576627,18.5949666 57.2576627,24.1838525 C57.2576627,29.7722402 54.8326098,35.085144 50.6055907,38.7610856 C50.4655208,38.8831355 50.316977,39.0007018 50.171424,39.1197627 C53.0161879,41.0132786 56.4312007,42.1172069 60.1054174,42.1172069 C70.0159828,42.1172069 78.05031,34.0883207 78.05031,24.1838525 C78.05031,14.2788861 70.0159828,6.25 60.1054174,6.25 Z M47.4248585,38.7610856 C43.1973409,35.0856422 40.7727865,29.7722402 40.7727865,24.1838525 C40.7727865,18.5949666 43.1973409,13.2815647 47.4248585,9.60562307 C47.5659253,9.48357324 47.7129737,9.36600687 47.8585267,9.24694602 C45.0142612,7.35392825 41.59875,6.25 37.9245333,6.25 C28.0134694,6.25 19.9796407,14.2793843 19.9796407,24.1838525 C19.9796407,34.0883207 28.0134694,42.1172069 37.9245333,42.1172069 C41.59875,42.1172069 45.0142612,41.0132786 47.8585267,39.1197627 C47.7129737,39.0007018 47.5649283,38.8831355 47.4248585,38.7610856 Z M61.8481069,46.2509335 C61.2840026,46.2509335 60.9169042,46.5146846 60.662842,46.9097729 L60.662842,46.3639697 L59.6939606,46.3639697 L59.6939606,50.8595793 L60.6725308,50.8595793 L60.6725308,48.3383347 C60.6725308,47.5955256 60.9922617,47.1821362 61.6317234,47.1821362 C61.8298058,47.1821362 62.0365005,47.2101261 62.2431952,47.2951724 L62.5446249,46.3736585 C62.3282414,46.2886122 62.0451128,46.2509335 61.8481069,46.2509335 Z M58.2331028,47.2574936 L58.2331028,46.3639697 L56.6344485,46.3639697 L56.6344485,45 L55.647266,45 L55.647266,46.3639697 L54.7343644,46.3639697 L54.7343644,47.2574936 L55.647266,47.2574936 L55.647266,49.307216 C55.647266,50.3514549 56.0509666,50.9726155 57.2082416,50.9726155 C57.6313198,50.9726155 58.1200666,50.8402017 58.4301086,50.6238182 L58.1480565,49.7873506 C57.8573921,49.9563666 57.5376612,50.0414128 57.283599,50.0414128 C56.7937756,50.0414128 56.6344485,49.7399831 56.6344485,49.2889149 L56.6344485,47.2574936 L58.2331028,47.2574936 Z M45.7140787,48.2166862 C45.8185026,47.5675357 46.2125143,47.1250798 46.9090324,47.1250798 C47.5388053,47.1250798 47.9435824,47.5201681 48.0469298,48.2166862 L45.7140787,48.2166862 Z M49.0631787,48.6117745 C49.0534899,47.2101261 48.1879558,46.2509335 46.9273335,46.2509335 C45.6107313,46.2509335 44.6892175,47.2101261 44.6892175,48.6117745 C44.6892175,50.0403363 45.6484101,50.971539 46.9940787,50.971539 C47.6712191,50.971539 48.2913032,50.802523 48.8371064,50.3417661 L48.3569718,49.6172581 C47.9812611,49.9186879 47.5011266,50.0877038 47.0500585,50.0877038 C46.4202856,50.0877038 45.8464925,49.7959629 45.7054664,48.9874852 L49.0438011,48.9874852 C49.0534899,48.8647602 49.0631787,48.7431118 49.0631787,48.6117745 Z M53.3607059,47.5115559 L53.7837841,46.7213793 C53.3144149,46.4113372 52.6652644,46.2509335 51.9504452,46.2509335 C50.8125479,46.2509335 50.0783511,46.7967367 50.0783511,47.6902607 C50.0783511,48.4233809 50.6241543,48.874449 51.6307144,49.0165516 L52.0914713,49.0822203 C52.6275857,49.1565012 52.8816479,49.2986038 52.8816479,49.5515895 C52.8816479,49.9003868 52.5242383,50.0973926 51.8567867,50.0973926 C51.1796463,50.0973926 50.6898229,49.8810091 50.3604032,49.6269469 L49.8996463,50.3891336 C50.4357607,50.7842219 51.1129011,50.9726155 51.8470979,50.9726155 C53.1443224,50.9726155 53.8968203,50.3611437 53.8968203,49.5052985 C53.8968203,48.7151219 53.3047261,48.3017325 52.3261559,48.1596299 L51.865399,48.0939612 C51.4423208,48.0379814 51.1042888,47.9529352 51.1042888,47.6525819 C51.1042888,47.3231623 51.4240197,47.1250798 51.960134,47.1250798 C52.5339271,47.1250798 53.0883426,47.3414634 53.3607059,47.5115559 Z M65.4232792,47.1799831 C65.6245912,47.1799831 65.8119083,47.2155088 65.9841539,47.2854835 C66.157476,47.3565348 66.3081909,47.4555761 66.4341455,47.5826072 C66.5622531,47.7096383 66.6612943,47.8625062 66.7344987,48.0401345 C66.8066265,48.2177627 66.8421522,48.4136921 66.8421522,48.626846 C66.8421522,48.8410764 66.8066265,49.0359293 66.7344987,49.2135575 C66.6612943,49.3911858 66.5622531,49.5440537 66.4341455,49.6710848 C66.3081909,49.7981159 66.157476,49.8971572 65.9841539,49.9682085 C65.8119083,50.0392598 65.6245912,50.0737089 65.4232792,50.0737089 C65.2219672,50.0737089 65.0357267,50.0392598 64.8624045,49.9682085 C64.690159,49.8971572 64.5405206,49.7981159 64.414566,49.6710848 C64.2886114,49.5440537 64.1895702,49.3911858 64.1174424,49.2135575 C64.0453146,49.0359293 64.0097889,48.8410764 64.0097889,48.626846 C64.0097889,48.4136921 64.0453146,48.2177627 64.1174424,48.0401345 C64.1895702,47.8625062 64.2886114,47.7096383 64.414566,47.5826072 C64.5405206,47.4555761 64.690159,47.3565348 64.8624045,47.2854835 C65.0357267,47.2155088 65.2219672,47.1799831 65.4232792,47.1799831 Z M65.4232792,46.2509335 C65.0744819,46.2509335 64.7515214,46.3112195 64.4543978,46.4328679 C64.1572742,46.5534398 63.9021354,46.7203027 63.6868285,46.9323801 C63.4715215,47.1444575 63.3025055,47.3952901 63.1797805,47.6838014 C63.0570555,47.9733893 62.9956931,48.2877375 62.9956931,48.626846 C62.9956931,48.9659545 63.0570555,49.2803027 63.1797805,49.5698906 C63.3025055,49.8584019 63.4715215,50.1103111 63.6868285,50.3223884 C63.9021354,50.5344658 64.1572742,50.7002522 64.4543978,50.8219006 C64.7515214,50.9424725 65.0744819,51.0027585 65.4232792,51.0027585 C65.7720765,51.0027585 66.095037,50.9424725 66.3921606,50.8219006 C66.6892842,50.7002522 66.9465761,50.5344658 67.1629596,50.3223884 C67.3804196,50.1103111 67.5494356,49.8584019 67.6721606,49.5698906 C67.7948855,49.2803027 67.856248,48.9659545 67.856248,48.626846 C67.856248,48.2877375 67.7948855,47.9733893 67.6721606,47.6838014 C67.5494356,47.3952901 67.3804196,47.1444575 67.1629596,46.9323801 C66.9465761,46.7203027 66.6892842,46.5534398 66.3921606,46.4328679 C66.095037,46.3112195 65.7720765,46.2509335 65.4232792,46.2509335 Z M39.9998316,48.6117745 C39.9998316,47.8215979 40.5176448,47.1724474 41.3638013,47.1724474 C42.1722789,47.1724474 42.7180821,47.793608 42.7180821,48.6117745 C42.7180821,49.429941 42.1722789,50.0500251 41.3638013,50.0500251 C40.5176448,50.0500251 39.9998316,49.4019511 39.9998316,48.6117745 Z M43.639596,48.6117745 L43.639596,46.3639697 L42.6621023,46.3639697 L42.6621023,46.9097729 C42.3509837,46.5049958 41.8816145,46.2509335 41.2421528,46.2509335 C39.9815305,46.2509335 38.994348,47.238116 38.994348,48.6117745 C38.994348,49.9843565 39.9815305,50.9726155 41.2421528,50.9726155 C41.8816145,50.9726155 42.3509837,50.7185533 42.6621023,50.3137761 L42.6621023,50.8595793 L43.639596,50.8595793 L43.639596,48.6117745 Z M38.128814,50.8595793 L38.128814,48.0379814 C38.128814,46.9754415 37.4516735,46.2606223 36.3611437,46.2509335 C35.7873506,46.2412447 35.1941799,46.4199495 34.7807905,47.0507989 C34.4707484,46.5523633 33.9809251,46.2509335 33.2940958,46.2509335 C32.8150378,46.2509335 32.3445921,46.3919596 31.9774937,46.9183851 L31.9774937,46.3639697 L31,46.3639697 L31,50.8595793 L31.9871825,50.8595793 L31.9871825,48.3674011 C31.9871825,47.5869133 32.4199495,47.1724474 33.0874011,47.1724474 C33.7365517,47.1724474 34.0659713,47.5955256 34.0659713,48.3577123 L34.0659713,50.8595793 L35.0531538,50.8595793 L35.0531538,48.3674011 C35.0531538,47.5869133 35.5052985,47.1724474 36.1533725,47.1724474 C36.8219006,47.1724474 37.1416315,47.5955256 37.1416315,48.3577123 L37.1416315,50.8595793 L38.128814,50.8595793 Z" id="Combined-Shape"></path>
            </g>
        </g>
    </g>
</svg>