<?xml version="1.0" encoding="UTF-8"?>
<svg width="100px" height="60px" viewBox="0 0 100 60" version="1.1" xmlns="http://www.w3.org/2000/svg" xmlns:xlink="http://www.w3.org/1999/xlink">
    <!-- Generator: Sketch 51.3 (57544) - http://www.bohemiancoding.com/sketch -->
    <title>Credit Card/Maestro/Maestro-card-dark</title>
    <desc>Created with Sketch.</desc>
    <defs></defs>
    <g id="Icons:-Credit-card" stroke="none" stroke-width="1" fill="none" fill-rule="evenodd">
        <g id="Maestro-card-dark">
            <g id="Credit-Card/Maestro/Maestro-card-dark">
                <rect id="Rectangle" fill="#000000" fill-rule="evenodd" x="0" y="0" width="100" height="60" rx="4"></rect>
                <g id="Group" stroke-width="1" fill-rule="evenodd" transform="translate(20.000000, 7.000000)">
                    <path d="M17.4456948,35.1268313 C7.81058756,35.1268313 0,27.2641232 0,17.5636932 C0,7.8635407 7.81058756,0 17.4456948,0 C27.0805264,0 34.8905626,7.8635407 34.8905626,17.5636932 C34.8905626,27.2641232 27.0805264,35.1268313 17.4456948,35.1268313 Z" id="Fill-333" fill="#EB001C"></path>
                    <path d="M40.6881191,35.1268313 C31.0530118,35.1268313 23.2424242,27.2641232 23.2424242,17.5636932 C23.2424242,7.8635407 31.0530118,0 40.6881191,0 C50.3229507,0 58.1329869,7.8635407 58.1329869,17.5636932 C58.1329869,27.2641232 50.3229507,35.1268313 40.6881191,35.1268313 Z" id="Fill-333-Copy" fill="#00A2E5"></path>
                    <path d="M29.0666677,4.4641096 C32.6408171,7.68039497 34.8905626,12.3575185 34.8905626,17.5636932 C34.8905626,22.7700169 32.6408171,27.4469695 29.0666677,30.6630646 C25.4923286,27.4469695 23.2424242,22.7700169 23.2424242,17.5636932 C23.2424242,12.3575185 25.4923286,7.68039497 29.0666677,4.4641096 Z" id="Combined-Shape" fill="#7375CF"></path>
                </g>
                <path d="M61.8481069,49.7518249 C62.0451128,49.7518249 62.3282414,49.7141462 62.5446249,49.6291 L62.2431952,48.7075861 C62.0365005,48.7926324 61.8298058,48.8206223 61.6317234,48.8206223 C60.9922617,48.8206223 60.6725308,48.4072329 60.6725308,47.6644238 L60.6725308,45.1431791 L59.6939606,45.1431791 L59.6939606,49.6387888 L60.662842,49.6387888 L60.662842,49.0929856 C60.9169042,49.4880739 61.2840026,49.7518249 61.8481069,49.7518249 Z M58.2331028,48.7452648 L56.6344485,48.7452648 L56.6344485,46.7138435 C56.6344485,46.2627754 56.7937756,45.9613456 57.283599,45.9613456 C57.5376612,45.9613456 57.8573921,46.0463919 58.1480565,46.2154079 L58.4301086,45.3789403 C58.1200666,45.1625568 57.6313198,45.030143 57.2082416,45.030143 C56.0509666,45.030143 55.647266,45.6513036 55.647266,46.6955424 L55.647266,48.7452648 L54.7343644,48.7452648 L54.7343644,49.6387888 L55.647266,49.6387888 L55.647266,51.0027585 L56.6344485,51.0027585 L56.6344485,49.6387888 L58.2331028,49.6387888 L58.2331028,48.7452648 Z M45.7140787,47.7860723 C45.8185026,48.4352228 46.2125143,48.8776786 46.9090324,48.8776786 C47.5388053,48.8776786 47.9435824,48.4825903 48.0469298,47.7860723 L45.7140787,47.7860723 Z M49.0631787,47.390984 C49.0534899,48.7926324 48.1879558,49.7518249 46.9273335,49.7518249 C45.6107313,49.7518249 44.6892175,48.7926324 44.6892175,47.390984 C44.6892175,45.9624222 45.6484101,45.0312195 46.9940787,45.0312195 C47.6712191,45.0312195 48.2913032,45.2002355 48.8371064,45.6609924 L48.3569718,46.3855004 C47.9812611,46.0840706 47.5011266,45.9150546 47.0500585,45.9150546 C46.4202856,45.9150546 45.8464925,46.2067956 45.7054664,47.0152733 L49.0438011,47.0152733 C49.0534899,47.1379983 49.0631787,47.2596467 49.0631787,47.390984 Z M53.3607059,48.4912026 C53.0883426,48.6612951 52.5339271,48.8776786 51.960134,48.8776786 C51.4240197,48.8776786 51.1042888,48.6795962 51.1042888,48.3501765 C51.1042888,48.0498233 51.4423208,47.964777 51.865399,47.9087972 L52.3261559,47.8431286 C53.3047261,47.701026 53.8968203,47.2876366 53.8968203,46.49746 C53.8968203,45.6416148 53.1443224,45.030143 51.8470979,45.030143 C51.1129011,45.030143 50.4357607,45.2185366 49.8996463,45.6136249 L50.3604032,46.3758116 C50.6898229,46.1217493 51.1796463,45.9053658 51.8567867,45.9053658 C52.5242383,45.9053658 52.8816479,46.1023717 52.8816479,46.451169 C52.8816479,46.7041547 52.6275857,46.8462573 52.0914713,46.9205382 L51.6307144,46.9862068 C50.6241543,47.1283095 50.0783511,47.5793776 50.0783511,48.3124978 C50.0783511,49.2060218 50.8125479,49.7518249 51.9504452,49.7518249 C52.6652644,49.7518249 53.3144149,49.5914212 53.7837841,49.2813792 L53.3607059,48.4912026 Z M65.4232792,48.8227753 C65.2219672,48.8227753 65.0357267,48.7872497 64.8624045,48.7172749 C64.690159,48.6462236 64.5405206,48.5471824 64.414566,48.4201513 C64.2886114,48.2931202 64.1895702,48.1402522 64.1174424,47.962624 C64.0453146,47.7849957 64.0097889,47.5890664 64.0097889,47.3759125 C64.0097889,47.161682 64.0453146,46.9668292 64.1174424,46.789201 C64.1895702,46.6115727 64.2886114,46.4587048 64.414566,46.3316736 C64.5405206,46.2046425 64.690159,46.1056013 64.8624045,46.03455 C65.0357267,45.9634987 65.2219672,45.9290496 65.4232792,45.9290496 C65.6245912,45.9290496 65.8119083,45.9634987 65.9841539,46.03455 C66.157476,46.1056013 66.3081909,46.2046425 66.4341455,46.3316736 C66.5622531,46.4587048 66.6612943,46.6115727 66.7344987,46.789201 C66.8066265,46.9668292 66.8421522,47.161682 66.8421522,47.3759125 C66.8421522,47.5890664 66.8066265,47.7849957 66.7344987,47.962624 C66.6612943,48.1402522 66.5622531,48.2931202 66.4341455,48.4201513 C66.3081909,48.5471824 66.157476,48.6462236 65.9841539,48.7172749 C65.8119083,48.7872497 65.6245912,48.8227753 65.4232792,48.8227753 Z M65.4232792,49.7518249 C65.7720765,49.7518249 66.095037,49.691539 66.3921606,49.5698906 C66.6892842,49.4493186 66.9465761,49.2824557 67.1629596,49.0703784 C67.3804196,48.858301 67.5494356,48.6074684 67.6721606,48.318957 C67.7948855,48.0293691 67.856248,47.715021 67.856248,47.3759125 C67.856248,47.036804 67.7948855,46.7224558 67.6721606,46.4328679 C67.5494356,46.1443566 67.3804196,45.8924474 67.1629596,45.68037 C66.9465761,45.4682927 66.6892842,45.3025063 66.3921606,45.1808579 C66.095037,45.060286 65.7720765,45 65.4232792,45 C65.0744819,45 64.7515214,45.060286 64.4543978,45.1808579 C64.1572742,45.3025063 63.9021354,45.4682927 63.6868285,45.68037 C63.4715215,45.8924474 63.3025055,46.1443566 63.1797805,46.4328679 C63.0570555,46.7224558 62.9956931,47.036804 62.9956931,47.3759125 C62.9956931,47.715021 63.0570555,48.0293691 63.1797805,48.318957 C63.3025055,48.6074684 63.4715215,48.858301 63.6868285,49.0703784 C63.9021354,49.2824557 64.1572742,49.4493186 64.4543978,49.5698906 C64.7515214,49.691539 65.0744819,49.7518249 65.4232792,49.7518249 Z M39.9998316,47.390984 C39.9998316,48.1811606 40.5176448,48.8303111 41.3638013,48.8303111 C42.1722789,48.8303111 42.7180821,48.2091505 42.7180821,47.390984 C42.7180821,46.5728175 42.1722789,45.9527334 41.3638013,45.9527334 C40.5176448,45.9527334 39.9998316,46.6008074 39.9998316,47.390984 Z M43.639596,47.390984 L43.639596,49.6387888 L42.6621023,49.6387888 L42.6621023,49.0929856 C42.3509837,49.4977627 41.8816145,49.7518249 41.2421528,49.7518249 C39.9815305,49.7518249 38.994348,48.7646425 38.994348,47.390984 C38.994348,46.018402 39.9815305,45.030143 41.2421528,45.030143 C41.8816145,45.030143 42.3509837,45.2842052 42.6621023,45.6889823 L42.6621023,45.1431791 L43.639596,45.1431791 L43.639596,47.390984 Z M38.128814,45.1431791 L38.128814,47.964777 C38.128814,49.027317 37.4516735,49.7421361 36.3611437,49.7518249 C35.7873506,49.7615138 35.1941799,49.582809 34.7807905,48.9519595 C34.4707484,49.4503952 33.9809251,49.7518249 33.2940958,49.7518249 C32.8150378,49.7518249 32.3445921,49.6107989 31.9774937,49.0843733 L31.9774937,49.6387888 L31,49.6387888 L31,45.1431791 L31.9871825,45.1431791 L31.9871825,47.6353574 C31.9871825,48.4158452 32.4199495,48.8303111 33.0874011,48.8303111 C33.7365517,48.8303111 34.0659713,48.4072329 34.0659713,47.6450462 L34.0659713,45.1431791 L35.0531538,45.1431791 L35.0531538,47.6353574 C35.0531538,48.4158452 35.5052985,48.8303111 36.1533725,48.8303111 C36.8219006,48.8303111 37.1416315,48.4072329 37.1416315,47.6450462 L37.1416315,45.1431791 L38.128814,45.1431791 Z" id="Shape" fill="#FFFFFF" fill-rule="nonzero" transform="translate(49.428124, 48.001379) scale(1, -1) translate(-49.428124, -48.001379) "></path>
            </g>
        </g>
    </g>
</svg>