<?xml version="1.0" encoding="UTF-8"?>
<svg width="100px" height="60px" viewBox="0 0 100 60" version="1.1" xmlns="http://www.w3.org/2000/svg" xmlns:xlink="http://www.w3.org/1999/xlink">
    <!-- Generator: Sketch 51.3 (57544) - http://www.bohemiancoding.com/sketch -->
    <title>Payment/MIR/MIR-card-light</title>
    <desc>Created with Sketch.</desc>
    <defs>
        <linearGradient x1="100%" y1="50%" x2="-0.18041958%" y2="50%" id="linearGradient-1">
            <stop stop-color="#1E5ED9" offset="0%"></stop>
            <stop stop-color="#03ADFF" offset="100%"></stop>
        </linearGradient>
    </defs>
    <g id="Icons:-Payment" stroke="none" stroke-width="1" fill="none" fill-rule="evenodd">
        <g id="MIR-card-light">
            <g id="Payment/MIR/MIR-card-light">
                <rect id="Rectangle" fill="#FFFFFF" x="0" y="0" width="100" height="60" rx="4"></rect>
                <g id="mir-logo-h14px" stroke-width="1" transform="translate(17.000000, 21.000000)">
                    <path d="M48.6514523,8.82142857 L67,8.82142857 C66.1659751,11.5357143 63.5248963,13.5714286 60.466805,13.5714286 L54.906639,13.5714286 L54.906639,19 L48.6514523,19 L48.6514523,8.82142857 Z M26.4107884,0 L32.6659751,0 L32.6659751,10.8571429 L33.3609959,10.8571429 C33.3609959,10.8571429 35.0290456,7.6 38.2261411,1.35714286 C38.9211618,0.135714286 40.3112033,0 40.3112033,0 L45.8713693,0 L45.8713693,19 L39.6161826,19 L39.6161826,8.14285714 L38.9211618,8.14285714 C38.9211618,8.14285714 37.8091286,10.3142857 34.0560166,17.6428571 C33.3609959,19 31.9709544,19 31.9709544,19 L26.4107884,19 L26.4107884,0 Z M0,19 L0,0 L6.25518672,0 C6.25518672,0 8.06224066,0 9.03526971,2.71428571 C11.5373444,9.90714286 11.8153527,10.8571429 11.8153527,10.8571429 C11.8153527,10.8571429 12.3713693,9.09285714 14.5954357,2.71428571 C15.5684647,0 17.3755187,0 17.3755187,0 L23.6307054,0 L23.6307054,19 L17.3755187,19 L17.3755187,8.82142857 L16.6804979,8.82142857 L13.2053942,19 L10.4253112,19 L6.95020747,8.82142857 L6.25518672,8.82142857 L6.25518672,19 L0,19 Z" id="Combined-Shape" fill="#006848"></path>
                    <path d="M60.006993,0 L47,0 C47.6993007,4.13333333 51.8951049,8 56.5104895,8 L66.8601399,8 C67,7.6 67,7.06666667 67,6.66666667 C67,2.93333333 63.9230769,0 60.006993,0 Z" id="path10-path" fill="url(#linearGradient-1)"></path>
                </g>
            </g>
        </g>
    </g>
</svg>