<?xml version="1.0" encoding="UTF-8"?>
<svg width="100px" height="60px" viewBox="0 0 100 60" version="1.1" xmlns="http://www.w3.org/2000/svg" xmlns:xlink="http://www.w3.org/1999/xlink">
    <!-- Generator: Sketch 51.3 (57544) - http://www.bohemiancoding.com/sketch -->
    <title>Payment/MIR/MIR-card-flat</title>
    <desc>Created with Sketch.</desc>
    <defs></defs>
    <g id="Icons:-Payment" stroke="none" stroke-width="1" fill="none" fill-rule="evenodd">
        <g id="MIR-card-flat" fill="#9B9B9B">
            <g id="Payment/MIR/MIR-card-flat">
                <path d="M0,4.0065556 C0,1.79379604 1.79952991,0 3.99732351,0 L96.0026765,0 C98.2103373,0 100,1.79568082 100,4.0065556 L100,55.9934444 C100,58.206204 98.2004701,60 96.0026765,60 L3.99732351,60 C1.78966269,60 0,58.2043192 0,55.9934444 L0,4.0065556 Z M65.6514523,29.8214286 L65.6514523,40 L71.906639,40 L71.906639,34.5714286 L77.466805,34.5714286 C80.5248963,34.5714286 83.1659751,32.5357143 84,29.8214286 L65.6514523,29.8214286 Z M77.006993,21 L64,21 C64.6993007,25.1333333 68.8951049,29 73.5104895,29 L83.8601399,29 C84,28.6 84,28.0666667 84,27.6666667 C84,23.9333333 80.9230769,21 77.006993,21 Z M43.4107884,21 L43.4107884,40 L48.9709544,40 C48.9709544,40 50.3609959,40 51.0560166,38.6428571 C54.8091286,31.3142857 55.9211618,29.1428571 55.9211618,29.1428571 L56.6161826,29.1428571 L56.6161826,40 L62.8713693,40 L62.8713693,21 L57.3112033,21 C57.3112033,21 55.9211618,21.1357143 55.2261411,22.3571429 C52.0290456,28.6 50.3609959,31.8571429 50.3609959,31.8571429 L49.6659751,31.8571429 L49.6659751,21 L43.4107884,21 Z M17,40 L23.2551867,40 L23.2551867,29.8214286 L23.9502075,29.8214286 L27.4253112,40 L30.2053942,40 L33.6804979,29.8214286 L34.3755187,29.8214286 L34.3755187,40 L40.6307054,40 L40.6307054,21 L34.3755187,21 C34.3755187,21 32.5684647,21 31.5954357,23.7142857 C29.3713693,30.0928571 28.8153527,31.8571429 28.8153527,31.8571429 C28.8153527,31.8571429 28.5373444,30.9071429 26.0352697,23.7142857 C25.0622407,21 23.2551867,21 23.2551867,21 L17,21 L17,40 Z" id="Combined-Shape"></path>
            </g>
        </g>
    </g>
</svg>