<?xml version="1.0" encoding="UTF-8"?>
<svg width="72px" height="26px" viewBox="0 0 72 26" version="1.1" xmlns="http://www.w3.org/2000/svg" xmlns:xlink="http://www.w3.org/1999/xlink">
    <!-- Generator: Sketch 51.3 (57544) - http://www.bohemiancoding.com/sketch -->
    <title>Payment/MIR/MIR-flat</title>
    <desc>Created with Sketch.</desc>
    <defs></defs>
    <g id="Icons:-Payment" stroke="none" stroke-width="1" fill="none" fill-rule="evenodd">
        <g id="MIR-flat" transform="translate(-14.000000, -17.000000)" fill="#9B9B9B">
            <g id="Payment/MIR/MIR-flat" transform="translate(14.000000, 17.000000)">
                <path d="M51.6514523,12.8214286 L70,12.8214286 C69.1659751,15.5357143 66.5248963,17.5714286 63.466805,17.5714286 L57.906639,17.5714286 L57.906639,23 L51.6514523,23 L51.6514523,12.8214286 Z M29.4107884,4 L35.6659751,4 L35.6659751,14.8571429 L36.3609959,14.8571429 C36.3609959,14.8571429 38.0290456,11.6 41.2261411,5.35714286 C41.9211618,4.13571429 43.3112033,4 43.3112033,4 L48.8713693,4 L48.8713693,23 L42.6161826,23 L42.6161826,12.1428571 L41.9211618,12.1428571 C41.9211618,12.1428571 40.8091286,14.3142857 37.0560166,21.6428571 C36.3609959,23 34.9709544,23 34.9709544,23 L29.4107884,23 L29.4107884,4 Z M3,23 L3,4 L9.25518672,4 C9.25518672,4 11.0622407,4 12.0352697,6.71428571 C14.5373444,13.9071429 14.8153527,14.8571429 14.8153527,14.8571429 C14.8153527,14.8571429 15.3713693,13.0928571 17.5954357,6.71428571 C18.5684647,4 20.3755187,4 20.3755187,4 L26.6307054,4 L26.6307054,23 L20.3755187,23 L20.3755187,12.8214286 L19.6804979,12.8214286 L16.2053942,23 L13.4253112,23 L9.95020747,12.8214286 L9.25518672,12.8214286 L9.25518672,23 L3,23 Z M63.006993,4 C66.9230769,4 70,6.93333333 70,10.6666667 C70,11.0666667 70,11.6 69.8601399,12 L59.5104895,12 C54.8951049,12 50.6993007,8.13333333 50,4 L63.006993,4 Z" id="Combined-Shape"></path>
            </g>
        </g>
    </g>
</svg>