<?xml version="1.0" encoding="UTF-8"?>
<svg width="100px" height="60px" viewBox="0 0 100 60" version="1.1" xmlns="http://www.w3.org/2000/svg" xmlns:xlink="http://www.w3.org/1999/xlink">
    <!-- Generator: Sketch 51.3 (57544) - http://www.bohemiancoding.com/sketch -->
    <title>Credit Card/Cirrus/Cirrus-dark</title>
    <desc>Created with Sketch.</desc>
    <defs></defs>
    <g id="Icons:-Credit-card" stroke="none" stroke-width="1" fill="none" fill-rule="evenodd">
        <g id="Cirrus-card-dark">
            <g id="Credit-Card/Cirrus/Cirrus-dark">
                <rect id="Rectangle" fill="#000000" fill-rule="evenodd" x="0" y="0" width="100" height="60" rx="4"></rect>
                <g id="Group" stroke-width="1" fill-rule="evenodd" transform="translate(20.000000, 7.000000)">
                    <path d="M17.4456948,35.1268313 C7.81058756,35.1268313 0,27.2641232 0,17.5636932 C0,7.8635407 7.81058756,0 17.4456948,0 C27.0805264,0 34.8905626,7.8635407 34.8905626,17.5636932 C34.8905626,27.2641232 27.0805264,35.1268313 17.4456948,35.1268313 Z" id="Fill-333" fill="#0066BA"></path>
                    <path d="M40.6881191,35.1268313 C31.0530118,35.1268313 23.2424242,27.2641232 23.2424242,17.5636932 C23.2424242,7.8635407 31.0530118,0 40.6881191,0 C50.3229507,0 58.1329869,7.8635407 58.1329869,17.5636932 C58.1329869,27.2641232 50.3229507,35.1268313 40.6881191,35.1268313 Z" id="Fill-333-Copy" fill="#00A2E5"></path>
                    <path d="M29.0666677,4.4641096 C32.6408171,7.68039497 34.8905626,12.3575185 34.8905626,17.5636932 C34.8905626,22.7700169 32.6408171,27.4469695 29.0666677,30.6630646 C25.4923286,27.4469695 23.2424242,22.7700169 23.2424242,17.5636932 C23.2424242,12.3575185 25.4923286,7.68039497 29.0666677,4.4641096 Z" id="Combined-Shape" fill="#007AD0"></path>
                </g>
                <path d="M61.1658677,44.7848997 L61.1658677,44.6792418 L61.2633192,44.6792418 C61.2848611,44.6792418 61.3033255,44.6843709 61.3156352,44.6925773 C61.3289707,44.7007837 61.3361513,44.715145 61.3361513,44.7325837 C61.3361513,44.7500224 61.3289707,44.7633578 61.3156352,44.7715643 C61.3033255,44.7807965 61.2848611,44.7848997 61.2633192,44.7848997 L61.1658677,44.7848997 Z M61.264345,44.8587576 C61.3146094,44.8587576 61.35359,44.8474738 61.3812867,44.8249061 C61.4089834,44.8023384 61.4223189,44.7715643 61.4223189,44.7325837 C61.4223189,44.6997579 61.4120608,44.673087 61.3894931,44.6515451 C61.3679512,44.631029 61.3361513,44.6176936 61.2961449,44.6125645 L61.4253963,44.4638229 L61.3248674,44.4638229 L61.2048483,44.6115387 L61.1658677,44.6115387 L61.1658677,44.4638229 L61.0817518,44.4638229 L61.0817518,44.8587576 L61.264345,44.8587576 Z M61.2386999,44.3284167 C61.2848611,44.3284167 61.3279449,44.3366231 61.3669254,44.3540618 C61.4069318,44.3715005 61.4418092,44.395094 61.4715575,44.4248423 C61.5013058,44.4545906 61.5248993,44.489468 61.542338,44.5305002 C61.5587509,44.5705066 61.5679831,44.6135904 61.5679831,44.6597516 C61.5679831,44.7059128 61.5587509,44.7489966 61.542338,44.7890029 C61.5248993,44.8290093 61.5013058,44.8649125 61.4715575,44.8946608 C61.4418092,44.9244091 61.4069318,44.9480026 61.3669254,44.9644155 C61.3279449,44.9818542 61.2848611,44.9900606 61.2386999,44.9900606 C61.1925386,44.9900606 61.1484291,44.9818542 61.1073969,44.9644155 C61.0673905,44.9480026 61.0314873,44.9244091 61.001739,44.8946608 C60.9719907,44.8649125 60.9483972,44.8290093 60.9319843,44.7890029 C60.9145456,44.7489966 60.9063392,44.7059128 60.9063392,44.6597516 C60.9063392,44.6135904 60.9145456,44.5705066 60.9319843,44.5305002 C60.9483972,44.489468 60.9719907,44.4545906 61.001739,44.4248423 C61.0314873,44.395094 61.0673905,44.3715005 61.1073969,44.3540618 C61.1484291,44.3366231 61.1925386,44.3284167 61.2386999,44.3284167 Z M61.2386999,45.0854605 C61.1771516,45.0854605 61.1207323,45.0741766 61.0673905,45.0516089 C61.0140487,45.030067 60.9678874,44.9992929 60.9289069,44.9603123 C60.8899263,44.9223575 60.8591522,44.8772221 60.8365845,44.8249061 C60.8140168,44.7736159 60.8027329,44.7182224 60.8027329,44.6597516 C60.8027329,44.6012807 60.8140168,44.5458872 60.8365845,44.494597 C60.8591522,44.4433068 60.8899263,44.3981714 60.9289069,44.3602166 C60.9678874,44.321236 61.0140487,44.2904619 61.0673905,44.2678942 C61.1207323,44.2453265 61.1771516,44.2340427 61.2386999,44.2340427 C61.2981965,44.2340427 61.3546158,44.2453265 61.4069318,44.2678942 C61.4602736,44.2904619 61.505409,44.321236 61.5454154,44.3602166 C61.584396,44.3981714 61.6151701,44.4433068 61.6377378,44.494597 C61.6603055,44.5458872 61.6715894,44.6012807 61.6715894,44.6597516 C61.6715894,44.7182224 61.6603055,44.7736159 61.6377378,44.8249061 C61.6151701,44.8772221 61.584396,44.9223575 61.5454154,44.9603123 C61.505409,44.9992929 61.4602736,45.030067 61.4069318,45.0516089 C61.3546158,45.0741766 61.2981965,45.0854605 61.2386999,45.0854605 Z M60.009827,48.1613314 C59.5615504,48.4567631 58.9429903,48.609608 58.2628818,48.609608 C57.1775806,48.609608 56.4790077,48.089525 56.4790077,47.2381072 C56.4790077,46.5395343 56.9990906,46.1097222 57.9571921,45.974316 L58.3972622,45.9117419 C58.9070871,45.8399356 59.149177,45.7055552 59.149177,45.4644911 C59.149177,45.1321305 58.8086099,44.9444082 58.172611,44.9444082 C57.5273799,44.9444082 57.0616647,45.1505949 56.7477685,45.3926848 L56.3087241,44.6664152 C56.8195748,44.2899449 57.4648059,44.1104291 58.1633788,44.1104291 C59.4004991,44.1104291 60.1175365,44.6930861 60.1175365,45.5086007 C60.1175365,46.2615413 59.553344,46.6554502 58.6208876,46.7908565 L58.1818433,46.8534305 C57.7787021,46.9067724 57.4555736,46.9878109 57.4555736,47.2740104 C57.4555736,47.5879066 57.7602376,47.7756288 58.2710883,47.7756288 C58.8178421,47.7756288 59.3471573,47.5694421 59.6066858,47.4083908 L60.009827,48.1613314 Z M38,46.3598134 C38,45.060119 38.9047596,44.1102239 40.2854926,44.1102239 C40.9307237,44.1102239 41.3605358,44.2538366 41.8262511,44.6210746 L41.3779745,45.3740152 C41.0292009,45.1226931 40.6619629,44.9883127 40.2577959,44.9883127 C39.5140875,44.9975449 38.9683595,45.5350665 38.9683595,46.3598134 C38.9683595,47.1845602 39.5140875,47.7220818 40.2577959,47.7313141 C40.6619629,47.7313141 41.0292009,47.5969337 41.3779745,47.3456116 L41.8262511,48.0985521 C41.3605358,48.4657902 40.9307237,48.6094028 40.2854926,48.6094028 C38.9047596,48.6094028 38,47.6595078 38,46.3598134 Z M46.9844068,48.3942875 C46.4468852,48.3942875 46.0970858,48.1429654 45.8549959,47.7664951 L45.8549959,48.286578 L44.9327976,48.286578 L44.9327976,44.0028181 L45.8642282,44.0028181 L45.8642282,46.4052524 C45.8642282,47.1130576 46.1688921,47.5069665 46.77822,47.5069665 C46.9669681,47.5069665 47.1639226,47.4802956 47.360877,47.399257 L47.6470765,48.2773458 C47.4419156,48.3583843 47.172129,48.3942875 46.9844068,48.3942875 Z M50.4457176,48.3942875 C49.908196,48.3942875 49.5583966,48.1429654 49.3163067,47.7664951 L49.3163067,48.286578 L48.3941084,48.286578 L48.3941084,44.0028181 L49.325539,44.0028181 L49.325539,46.4052524 C49.325539,47.1130576 49.6302029,47.5069665 50.2395309,47.5069665 C50.4282789,47.5069665 50.6252334,47.4802956 50.8221879,47.399257 L51.1083873,48.2773458 C50.9032264,48.3583843 50.6334398,48.3942875 50.4457176,48.3942875 Z M42.9798539,44 L43.9174393,44 L43.9174393,48.2776051 L42.9798539,48.2776051 L42.9798539,44 Z M43.4537756,50.4153818 C43.3614532,50.4153818 43.2752856,50.3989689 43.1942881,50.3640916 C43.113865,50.330281 43.0445206,50.283094 42.985024,50.2235563 C42.9259376,50.1640597 42.8783403,50.094305 42.8444477,50.0142922 C42.80916,49.9332947 42.7935678,49.8470861 42.7935678,49.7547636 C42.7935678,49.6624412 42.8099807,49.5762736 42.8444477,49.4962609 C42.8780941,49.4152634 42.9256914,49.3464934 42.985024,49.2880226 C43.0441103,49.2305775 43.1142753,49.1844163 43.1942881,49.1526164 C43.2755318,49.1197906 43.3614532,49.1033777 43.4537756,49.1033777 C43.546098,49.1033777 43.6322656,49.1197906 43.7122784,49.1526164 C43.7935221,49.1843753 43.8620458,49.2305775 43.9205577,49.2880226 C43.9780028,49.3464524 44.0231382,49.4152223 44.0559639,49.4962609 C44.0887897,49.5762736 44.1052026,49.6624412 44.1052026,49.7547636 C44.1052026,49.8470861 44.0887897,49.9332536 44.0559639,50.0142922 C44.0231382,50.094305 43.9780028,50.1640597 43.9205577,50.2235563 C43.862292,50.283053 43.793358,50.33024 43.7122784,50.3640916 C43.6318553,50.3989689 43.546098,50.4153818 43.4537756,50.4153818 Z M55.7314834,46.0373004 L55.7314834,48.5023088 L54.8051818,48.5023088 L54.8051818,46.1224422 C54.8051818,45.9172813 54.7795367,45.7418687 54.7261949,45.5972303 C54.6728531,45.4536176 54.6010467,45.3366759 54.5076985,45.2474309 C54.4153761,45.1581859 54.305615,45.0925344 54.1794411,45.052528 C54.0532671,45.0125216 53.9178609,44.9920056 53.7742482,44.9920056 C53.6296098,44.9920056 53.4942036,45.0125216 53.3680296,45.052528 C53.2418557,45.0925344 53.1320946,45.1581859 53.0397722,45.2474309 C52.9474498,45.3366759 52.8746176,45.4536176 52.8212758,45.5972303 C52.7689598,45.7418687 52.7422888,45.9172813 52.7422888,46.1224422 L52.7422888,48.5023088 L51.8159873,48.5023088 L51.8159873,46.0373004 C51.8159873,45.6977591 51.8713808,45.4064306 51.9811419,45.1622891 C52.0919287,44.9181476 52.2386188,44.7191415 52.4222378,44.564245 C52.6058568,44.4093486 52.815121,44.2954843 53.051056,44.2226521 C53.2859653,44.14982 53.5270293,44.112891 53.7742482,44.112891 C54.0204413,44.112891 54.2615054,44.14982 54.4974405,44.2226521 C54.7323497,44.2954843 54.940588,44.4093486 55.1231813,44.564245 C55.3057745,44.7191415 55.4524645,44.9181476 55.5642772,45.1622891 C55.6750641,45.4064306 55.7314834,45.6977591 55.7314834,46.0373004 Z" id="Combined-Shape" fill="#FFFFFF" fill-rule="nonzero" transform="translate(49.835795, 47.207691) scale(1, -1) translate(-49.835795, -47.207691) "></path>
            </g>
        </g>
    </g>
</svg>