<?xml version="1.0" encoding="UTF-8"?>
<svg width="67px" height="42px" viewBox="0 0 67 42" version="1.1" xmlns="http://www.w3.org/2000/svg" xmlns:xlink="http://www.w3.org/1999/xlink">
    <!-- Generator: Sketch 51.3 (57544) - http://www.bohemiancoding.com/sketch -->
    <title>Credit card/Cirrus/Cirrus-flat</title>
    <desc>Created with Sketch.</desc>
    <defs></defs>
    <g id="Icons:-Credit-card" stroke="none" stroke-width="1" fill="none" fill-rule="evenodd">
        <g id="Cirrus-flat" transform="translate(-17.000000, -10.000000)" fill="#9B9B9B">
            <g id="Credit-Card/Cirrus/Cirrus-flat" transform="translate(17.000000, 9.000000)">
                <path d="M33.5,5.43415338 C33.7668544,5.64407114 34.0279576,5.8603152 34.2838847,6.08231043 C38.6467235,9.87865886 41.4078611,15.4670724 41.4078611,21.7042181 C41.4078611,27.9407887 38.6467235,33.5292022 34.2838847,37.3249755 C34.0279576,37.5475459 33.7668544,37.7637899 33.5,37.9737077 C33.2331456,37.7637899 32.9720424,37.5475459 32.7166904,37.3249755 C28.3538516,33.5292022 25.5921389,27.9407887 25.5921389,21.7042181 C25.5921389,15.4670724 28.3538516,9.87865886 32.7166904,6.08231043 C32.9720424,5.8603152 33.2331456,5.64407114 33.5,5.43415338 Z M46.2957819,1 C57.7302615,1 67,10.2691634 67,21.7042181 C67,33.1386977 57.7302615,42.4078611 46.2957819,42.4078611 C42.0565932,42.4078611 38.1164655,41.1334014 34.8342718,38.9473811 C35.002206,38.8099281 35.173591,38.6742004 35.3351989,38.5332967 C40.2121925,34.2895071 43.0101375,28.1558825 43.0101375,21.7042181 C43.0101375,15.2519786 40.2121925,9.11777885 35.3346238,4.87456437 C35.1724407,4.73308555 35.002206,4.59735789 34.8342718,4.45990489 C38.1164655,2.27445965 42.0565932,1 46.2957819,1 Z M31.6653762,38.5332967 C31.8269842,38.6742004 31.997794,38.8099281 32.1657282,38.9473811 C28.8841096,41.1334014 24.9434068,42.4078611 20.7042181,42.4078611 C9.26916342,42.4078611 0,33.1386977 0,21.7042181 C0,10.2697385 9.26916342,1 20.7042181,1 C24.9434068,1 28.8841096,2.27445965 32.1657282,4.45990489 C31.997794,4.59735789 31.8281344,4.73308555 31.6653762,4.87398925 C26.7878075,9.11777885 23.9904376,15.2519786 23.9904376,21.7042181 C23.9904376,28.1558825 26.7878075,34.2900822 31.6653762,38.5332967 Z" id="Combined-Shape"></path>
            </g>
        </g>
    </g>
</svg>