<?xml version="1.0" encoding="UTF-8"?>
<svg width="100px" height="60px" viewBox="0 0 100 60" version="1.1" xmlns="http://www.w3.org/2000/svg" xmlns:xlink="http://www.w3.org/1999/xlink">
    <!-- Generator: Sketch 51.3 (57544) - http://www.bohemiancoding.com/sketch -->
    <title>Credit Card/Cirrus/Cirrus-card-flat</title>
    <desc>Created with Sketch.</desc>
    <defs></defs>
    <g id="Icons:-Credit-card" stroke="none" stroke-width="1" fill="none" fill-rule="evenodd">
        <g id="Cirrus-card-flat" fill="#9B9B9B">
            <g id="Credit-Card/Cirrus/Cirrus-card-flat">
                <path d="M0,4.0065556 C0,1.79379604 1.79952991,0 3.99732351,0 L96.0026765,0 C98.2103373,0 100,1.79568082 100,4.0065556 L100,55.9934444 C100,58.206204 98.2004701,60 96.0026765,60 L3.99732351,60 C1.78966269,60 0,58.2043192 0,55.9934444 L0,4.0065556 Z M49.0149753,10.0908334 C48.7836856,10.2726628 48.5573806,10.4599719 48.3360602,10.6522626 C44.5546726,13.9406338 42.1610233,18.7812794 42.1610233,24.1838525 C42.1610233,29.5859274 44.5546726,34.4265731 48.3360602,37.7144461 C48.5573806,37.907235 48.7836856,38.0945441 49.0149753,38.2763735 C49.2462651,38.0945441 49.4725701,37.907235 49.6943889,37.7144461 C53.4757766,34.4265731 55.8689274,29.5859274 55.8689274,24.1838525 C55.8689274,18.7812794 53.4757766,13.9406338 49.6943889,10.6522626 C49.4725701,10.4599719 49.2462651,10.2726628 49.0149753,10.0908334 Z M60.1054174,6.25 C56.4312007,6.25 53.0161879,7.35392825 50.171424,9.24694602 C50.316977,9.36600687 50.4645239,9.48357324 50.6050922,9.60612123 C54.8326098,13.2815647 57.2576627,18.5949666 57.2576627,24.1838525 C57.2576627,29.7722402 54.8326098,35.085144 50.6055907,38.7610856 C50.4655208,38.8831355 50.316977,39.0007018 50.171424,39.1197627 C53.0161879,41.0132786 56.4312007,42.1172069 60.1054174,42.1172069 C70.0159828,42.1172069 78.05031,34.0883207 78.05031,24.1838525 C78.05031,14.2788861 70.0159828,6.25 60.1054174,6.25 Z M47.4248585,38.7610856 C43.1973409,35.0856422 40.7727865,29.7722402 40.7727865,24.1838525 C40.7727865,18.5949666 43.1973409,13.2815647 47.4248585,9.60562307 C47.5659253,9.48357324 47.7129737,9.36600687 47.8585267,9.24694602 C45.0142612,7.35392825 41.59875,6.25 37.9245333,6.25 C28.0134694,6.25 19.9796407,14.2793843 19.9796407,24.1838525 C19.9796407,34.0883207 28.0134694,42.1172069 37.9245333,42.1172069 C41.59875,42.1172069 45.0142612,41.0132786 47.8585267,39.1197627 C47.7129737,39.0007018 47.5649283,38.8831355 47.4248585,38.7610856 Z M61.2569872,49.1047602 C61.198039,49.1047602 61.1440031,49.1155674 61.0929147,49.1371817 C61.0418263,49.1578136 60.9976151,49.1872877 60.9602813,49.2246215 C60.9229474,49.2609729 60.8934734,49.3042016 60.871859,49.3543075 C60.8502447,49.403431 60.8394375,49.4564844 60.8394375,49.5124852 C60.8394375,49.5684859 60.8502447,49.6215393 60.871859,49.6706628 C60.8934734,49.7197863 60.9229474,49.7630149 60.9602813,49.7993663 C60.9976151,49.8367002 61.0418263,49.8661743 61.0929147,49.8877886 C61.1440031,49.9094029 61.198039,49.9202101 61.2569872,49.9202101 C61.3139704,49.9202101 61.3680062,49.9094029 61.4181122,49.8877886 C61.4692006,49.8661743 61.5124293,49.8367002 61.5507456,49.7993663 C61.5880795,49.7630149 61.6175535,49.7197863 61.6391679,49.6706628 C61.6607822,49.6215393 61.6715894,49.5684859 61.6715894,49.5124852 C61.6715894,49.4564844 61.6607822,49.403431 61.6391679,49.3543075 C61.6175535,49.3042016 61.5880795,49.2609729 61.5507456,49.2246215 C61.5124293,49.1872877 61.4692006,49.1578136 61.4181122,49.1371817 C61.3680062,49.1155674 61.3139704,49.1047602 61.2569872,49.1047602 Z M60.0800277,46.1588287 C59.6506884,45.8758774 59.0582592,45.7294894 58.4068818,45.7294894 C57.3674288,45.7294894 56.6983669,46.2276016 56.6983669,47.0430514 C56.6983669,47.7121133 57.1964791,48.1237681 58.1141058,48.2534541 L58.5355853,48.3133848 C59.0238728,48.3821577 59.2557356,48.5108612 59.2557356,48.7417416 C59.2557356,49.0600618 58.9295557,49.2398537 58.3204244,49.2398537 C57.702451,49.2398537 57.2564097,49.0423773 56.955774,48.8105145 L56.5352769,49.506103 C57.0245469,49.8666694 57.6425203,50.0386016 58.3115822,50.0386016 C59.4964407,50.0386016 60.183187,49.4805588 60.183187,48.6994954 C60.183187,47.9783626 59.6428287,47.6010942 58.7497637,47.4714082 L58.3292667,47.4114776 C57.9431561,47.3603891 57.6336781,47.282774 57.6336781,47.008665 C57.6336781,46.7080292 57.9254716,46.5282373 58.4147415,46.5282373 C58.9383979,46.5282373 59.4453523,46.7257137 59.6939171,46.8799615 L60.0800277,46.1588287 Z M39,47.884242 C39,49.1290312 39.8665383,50.0387981 41.1889426,50.0387981 C41.806916,50.0387981 42.2185708,49.9012524 42.6646121,49.5495282 L42.2352728,48.8283954 C41.9012331,49.0691005 41.5495089,49.197804 41.1624159,49.197804 C40.4501253,49.1889618 39.9274514,48.6741477 39.9274514,47.884242 C39.9274514,47.0943363 40.4501253,46.5795222 41.1624159,46.57068 C41.5495089,46.57068 41.9012331,46.6993835 42.2352728,46.9400886 L42.6646121,46.2189558 C42.2185708,45.8672317 41.806916,45.7296859 41.1889426,45.7296859 C39.8665383,45.7296859 39,46.6394529 39,47.884242 Z M47.6048629,45.9357137 C47.0900487,45.9357137 46.7550266,46.1764188 46.5231637,46.5369852 L46.5231637,46.038873 L45.6399234,46.038873 L45.6399234,50.1416666 L46.5320059,50.1416666 L46.5320059,47.8407225 C46.5320059,47.1628184 46.8237994,46.78555 47.4073865,46.78555 C47.5881609,46.78555 47.7767951,46.8110943 47.9654293,46.8887094 L48.2395383,46.0477153 C48.0430444,45.9701002 47.7846548,45.9357137 47.6048629,45.9357137 Z M50.9199515,45.9357137 C50.4051374,45.9357137 50.0701152,46.1764188 49.8382524,46.5369852 L49.8382524,46.038873 L48.9550121,46.038873 L48.9550121,50.1416666 L49.8470946,50.1416666 L49.8470946,47.8407225 C49.8470946,47.1628184 50.1388881,46.78555 50.7224751,46.78555 C50.9032496,46.78555 51.0918837,46.8110943 51.2805179,46.8887094 L51.554627,46.0477153 C51.358133,45.9701002 51.0997435,45.9357137 50.9199515,45.9357137 Z M43.7694813,50.1443657 L44.6674586,50.1443657 L44.6674586,46.0474669 L43.7694813,46.0474669 L43.7694813,50.1443657 Z M44.2233823,44 C44.13496,44 44.0524326,44.0157195 43.9748568,44.0491235 C43.8978312,44.0815057 43.8314162,44.1266993 43.774433,44.1837218 C43.7178427,44.2407051 43.6722561,44.307513 43.6397953,44.3841457 C43.6059983,44.4617215 43.5910648,44.5442882 43.5910648,44.6327105 C43.5910648,44.7211328 43.6067843,44.8036602 43.6397953,44.8802929 C43.6720203,44.9578687 43.7176069,45.0237335 43.774433,45.0797342 C43.8310232,45.1347525 43.8982241,45.1789637 43.9748568,45.2094202 C44.0526684,45.2408593 44.13496,45.2565788 44.2233823,45.2565788 C44.3118046,45.2565788 44.3943321,45.2408593 44.4709647,45.2094202 C44.5487763,45.179003 44.6144053,45.1347525 44.6704453,45.0797342 C44.7254637,45.0237728 44.7686923,44.957908 44.8001314,44.8802929 C44.8315704,44.8036602 44.8472899,44.7211328 44.8472899,44.6327105 C44.8472899,44.5442882 44.8315704,44.4617608 44.8001314,44.3841457 C44.7686923,44.307513 44.7254637,44.2407051 44.6704453,44.1837218 C44.6146411,44.1267386 44.5486191,44.081545 44.4709647,44.0491235 C44.3939391,44.0157195 44.3118046,44 44.2233823,44 Z M55.9824216,48.1931305 L55.9824216,45.8322557 L55.0952514,45.8322557 L55.0952514,48.1115855 C55.0952514,48.3080795 55.0706897,48.4760818 55.0196012,48.61461 C54.9685128,48.7521558 54.8997399,48.8641573 54.8103352,48.9496322 C54.7219129,49.0351071 54.6167886,49.0979851 54.4959449,49.1363014 C54.3751011,49.1746178 54.2454151,49.1942671 54.1078693,49.1942671 C53.9693411,49.1942671 53.8396551,49.1746178 53.7188113,49.1363014 C53.5979675,49.0979851 53.4928433,49.0351071 53.404421,48.9496322 C53.3159987,48.8641573 53.2462434,48.7521558 53.1951549,48.61461 C53.145049,48.4760818 53.1195048,48.3080795 53.1195048,48.1115855 L53.1195048,45.8322557 L52.2323346,45.8322557 L52.2323346,48.1931305 C52.2323346,48.518328 52.285388,48.7973494 52.3905122,49.0311772 C52.496619,49.265005 52.6371121,49.4556041 52.8129742,49.603957 C52.9888363,49.75231 53.1892601,49.8613641 53.4152282,49.9311194 C53.6402137,50.0008748 53.8710941,50.0362437 54.1078693,50.0362437 C54.3436621,50.0362437 54.5745424,50.0008748 54.8005105,49.9311194 C55.0254961,49.8613641 55.2249374,49.75231 55.399817,49.603957 C55.5746966,49.4556041 55.7151898,49.265005 55.822279,49.0311772 C55.9283857,48.7973494 55.9824216,48.518328 55.9824216,48.1931305 Z" id="Combined-Shape"></path>
            </g>
        </g>
    </g>
</svg>