<?xml version="1.0" encoding="UTF-8"?>
<svg width="67px" height="40px" viewBox="0 0 67 40" version="1.1" xmlns="http://www.w3.org/2000/svg" xmlns:xlink="http://www.w3.org/1999/xlink">
    <!-- Generator: Sketch 51.3 (57544) - http://www.bohemiancoding.com/sketch -->
    <title>Credit Card/Cirrus/Cirrus</title>
    <desc>Created with Sketch.</desc>
    <defs></defs>
    <g id="Icons:-Credit-card" stroke="none" stroke-width="1" fill="none" fill-rule="evenodd">
        <g id="Cirrus" transform="translate(-17.000000, -10.000000)">
            <g id="Credit-Card/Cirrus/Cirrus" transform="translate(17.000000, 10.000000)">
                <path d="M20.5155231,39.0298125 C9.73726744,39.0298125 1,30.2934703 1,19.5152147 C1,8.73726744 9.73726744,0 20.5155231,0 C31.2934703,0 40.0301209,8.73726744 40.0301209,19.5152147 C40.0301209,30.2934703 31.2934703,39.0298125 20.5155231,39.0298125 Z" id="Fill-333" fill="#0066BA"></path>
                <path d="M46.5155231,39.0298125 C35.7372674,39.0298125 27,30.2934703 27,19.5152147 C27,8.73726744 35.7372674,0 46.5155231,0 C57.2934703,0 66.0301209,8.73726744 66.0301209,19.5152147 C66.0301209,30.2934703 57.2934703,39.0298125 46.5155231,39.0298125 Z" id="Fill-333-Copy" fill="#00A2E5"></path>
                <path d="M33.5812975,5 C37.5983312,8.57450402 40.1286209,13.7837632 40.1286209,19.5840396 C40.1286209,25.4006293 37.5842239,30.6225474 33.547715,34.1976542 C29.5304683,30.6233623 27,25.4142945 27,19.6138521 C27,13.7974298 29.5445758,8.57531957 33.5812975,5 Z" id="Combined-Shape" fill="#007AD0"></path>
            </g>
        </g>
    </g>
</svg>